AntonFForge.ufo
<glyph name="exclam" format="1">
  <advance width="487"/>
  <unicode hex="0021"/>
  <outline>
    <contour>
      <point x="65" y="1593" type="line" smooth="no"/>
      <point x="423" y="1593" type="line" smooth="no"/>
      <point x="353" y="439" type="line" smooth="no"/>
      <point x="135" y="439" type="line" smooth="no"/>
    </contour>
    <contour>
      <point x="65" y="1" type="line" smooth="no"/>
      <point x="65" y="299" type="line" smooth="no"/>
      <point x="423" y="299" type="line" smooth="no"/>
      <point x="423" y="1" type="line" smooth="no"/>
    </contour>
  </outline>
</glyph>
<glyph name="numbersign" format="1">
  <advance width="1130"/>
  <unicode hex="0023"/>
  <outline>
    <contour>
      <point x="105" y="886" type="line" smooth="no"/>
      <point x="105" y="1118" type="line" smooth="no"/>
      <point x="260" y="1118" type="line" smooth="no"/>
      <point x="353" y="1593" type="line" smooth="no"/>
      <point x="637" y="1593" type="line" smooth="no"/>
      <point x="544" y="1118" type="line" smooth="no"/>
      <point x="710" y="1118" type="line" smooth="no"/>
      <point x="803" y="1593" type="line" smooth="no"/>
      <point x="1087" y="1593" type="line" smooth="no"/>
      <point x="994" y="1118" type="line" smooth="no"/>
      <point x="1087" y="1118" type="line" smooth="no"/>
      <point x="1087" y="886" type="line" smooth="no"/>
      <point x="949" y="886" type="line" smooth="no"/>
      <point x="921" y="741" type="line" smooth="no"/>
      <point x="1029" y="741" type="line" smooth="no"/>
      <point x="1029" y="509" type="line" smooth="no"/>
      <point x="875" y="509" type="line" smooth="no"/>
      <point x="776" y="0" type="line" smooth="no"/>
      <point x="493" y="0" type="line" smooth="no"/>
      <point x="592" y="509" type="line" smooth="no"/>
      <point x="425" y="509" type="line" smooth="no"/>
      <point x="326" y="0" type="line" smooth="no"/>
      <point x="43" y="0" type="line" smooth="no"/>
      <point x="142" y="509" type="line" smooth="no"/>
      <point x="47" y="509" type="line" smooth="no"/>
      <point x="47" y="741" type="line" smooth="no"/>
      <point x="187" y="741" type="line" smooth="no"/>
      <point x="215" y="886" type="line" smooth="no"/>
    </contour>
    <contour>
      <point x="499" y="886" type="line" smooth="no"/>
      <point x="471" y="741" type="line" smooth="no"/>
      <point x="637" y="741" type="line" smooth="no"/>
      <point x="665" y="886" type="line" smooth="no"/>
    </contour>
  </outline>
</glyph>
<glyph name="dollar" format="1">
  <advance width="949"/>
  <unicode hex="0024"/>
  <outline>
    <contour>
      <point x="386" y="-113" type="line" smooth="no"/>
      <point x="386" y="36" type="line" smooth="no"/>
      <point x="198" y="58"/>
      <point x="36" y="279"/>
      <point x="36" y="488" type="qcurve" smooth="yes"/>
      <point x="36" y="543" type="line" smooth="no"/>
      <point x="384" y="543" type="line" smooth="no"/>
      <point x="384" y="501" type="line" smooth="yes"/>
      <point x="384" y="347"/>
      <point x="478" y="347" type="qcurve" smooth="yes"/>
      <point x="517" y="347"/>
      <point x="562" y="407"/>
      <point x="562" y="456" type="qcurve" smooth="yes"/>
      <point x="562" y="491"/>
      <point x="500" y="560" type="qcurve" smooth="no"/>
      <point x="212" y="849" type="line" smooth="yes"/>
      <point x="54" y="1007"/>
      <point x="54" y="1192" type="qcurve" smooth="yes"/>
      <point x="54" y="1327"/>
      <point x="233" y="1531"/>
      <point x="386" y="1558" type="qcurve" smooth="no"/>
      <point x="386" y="1679" type="line" smooth="no"/>
      <point x="559" y="1679" type="line" smooth="no"/>
      <point x="559" y="1561" type="line" smooth="no"/>
      <point x="725" y="1540"/>
      <point x="908" y="1307"/>
      <point x="908" y="1105" type="qcurve" smooth="no"/>
      <point x="551" y="1105" type="line" smooth="no"/>
      <point x="549" y="1190" type="line" smooth="no"/>
      <point x="547" y="1218"/>
      <point x="498" y="1259"/>
      <point x="467" y="1259" type="qcurve" smooth="yes"/>
      <point x="432" y="1259"/>
      <point x="383" y="1216"/>
      <point x="383" y="1182" type="qcurve" smooth="yes"/>
      <point x="383" y="1132"/>
      <point x="482" y="1034" type="qcurve" smooth="yes"/>
      <point x="762" y="758" type="line" smooth="yes"/>
      <point x="836" y="685"/>
      <point x="913" y="504"/>
      <point x="913" y="413" type="qcurve" smooth="yes"/>
      <point x="913" y="319"/>
      <point x="835" y="159"/>
      <point x="672" y="47"/>
      <point x="559" y="34" type="qcurve" smooth="no"/>
      <point x="559" y="-113" type="line" smooth="no"/>
    </contour>
  </outline>
</glyph>
<glyph name="percent" format="1">
  <advance width="2164"/>
  <unicode hex="0025"/>
  <outline>
    <contour>
      <point x="1729" y="-18" type="qcurve" smooth="yes"/>
      <point x="1654" y="-18"/>
      <point x="1519" y="30"/>
      <point x="1405" y="126"/>
      <point x="1338" y="293"/>
      <point x="1338" y="402" type="qcurve" smooth="yes"/>
      <point x="1338" y="765" type="line" smooth="yes"/>
      <point x="1338" y="974"/>
      <point x="1538" y="1183"/>
      <point x="1920" y="1183"/>
      <point x="2121" y="974"/>
      <point x="2121" y="765" type="qcurve" smooth="yes"/>
      <point x="2121" y="402" type="line" smooth="yes"/>
      <point x="2121" y="293"/>
      <point x="2054" y="126"/>
      <point x="1940" y="30"/>
      <point x="1805" y="-18"/>
    </contour>
    <contour>
      <point x="1763" y="244"/>
      <point x="1822" y="296"/>
      <point x="1822" y="343" type="qcurve" smooth="yes"/>
      <point x="1822" y="829" type="line" smooth="yes"/>
      <point x="1822" y="852"/>
      <point x="1821" y="876"/>
      <point x="1811" y="917"/>
      <point x="1793" y="939"/>
      <point x="1756" y="956"/>
      <point x="1729" y="956" type="qcurve" smooth="yes"/>
      <point x="1703" y="956"/>
      <point x="1666" y="939"/>
      <point x="1647" y="917"/>
      <point x="1637" y="877"/>
      <point x="1636" y="851"/>
      <point x="1636" y="829" type="qcurve" smooth="yes"/>
      <point x="1636" y="343" type="line" smooth="yes"/>
      <point x="1636" y="296"/>
      <point x="1695" y="244"/>
    </contour>
    <contour>
      <point x="982" y="0" type="line" smooth="no"/>
      <point x="659" y="0" type="line" smooth="no"/>
      <point x="1199" y="1767" type="line" smooth="no"/>
      <point x="1523" y="1767" type="line" smooth="no"/>
    </contour>
    <contour>
      <point x="432" y="528" type="qcurve" smooth="yes"/>
      <point x="357" y="528"/>
      <point x="222" y="576"/>
      <point x="108" y="672"/>
      <point x="41" y="839"/>
      <point x="41" y="948" type="qcurve" smooth="yes"/>
      <point x="41" y="1311" type="line" smooth="yes"/>
      <point x="41" y="1520"/>
      <point x="241" y="1729"/>
      <point x="623" y="1729"/>
      <point x="824" y="1520"/>
      <point x="824" y="1311" type="qcurve" smooth="yes"/>
      <point x="824" y="948" type="line" smooth="yes"/>
      <point x="824" y="839"/>
      <point x="757" y="672"/>
      <point x="643" y="576"/>
      <point x="508" y="528"/>
    </contour>
    <contour>
      <point x="466" y="790"/>
      <point x="525" y="842"/>
      <point x="525" y="889" type="qcurve" smooth="yes"/>
      <point x="525" y="1375" type="line" smooth="yes"/>
      <point x="525" y="1398"/>
      <point x="524" y="1422"/>
      <point x="514" y="1463"/>
      <point x="496" y="1485"/>
      <point x="459" y="1502"/>
      <point x="432" y="1502" type="qcurve" smooth="yes"/>
      <point x="406" y="1502"/>
      <point x="369" y="1485"/>
      <point x="350" y="1463"/>
      <point x="340" y="1423"/>
      <point x="339" y="1397"/>
      <point x="339" y="1375" type="qcurve" smooth="yes"/>
      <point x="339" y="889" type="line" smooth="yes"/>
      <point x="339" y="842"/>
      <point x="398" y="790"/>
    </contour>
  </outline>
</glyph>
<glyph name="ampersand" format="1">
  <advance width="1110"/>
  <unicode hex="0026"/>
  <outline>
    <contour>
      <point x="70" y="386" type="qcurve" smooth="yes"/>
      <point x="70" y="432"/>
      <point x="72" y="488"/>
      <point x="81" y="580"/>
      <point x="99" y="646"/>
      <point x="134" y="734"/>
      <point x="183" y="806"/>
      <point x="259" y="885"/>
      <point x="308" y="921" type="qcurve" smooth="no"/>
      <point x="265" y="1006"/>
      <point x="208" y="1191"/>
      <point x="208" y="1262" type="qcurve" smooth="yes"/>
      <point x="208" y="1416"/>
      <point x="408" y="1582"/>
      <point x="556" y="1582" type="qcurve" smooth="yes"/>
      <point x="621" y="1582"/>
      <point x="741" y="1545"/>
      <point x="841" y="1472"/>
      <point x="901" y="1350"/>
      <point x="901" y="1273" type="qcurve" smooth="yes"/>
      <point x="901" y="1063"/>
      <point x="666" y="875" type="qcurve" smooth="no"/>
      <point x="729" y="726" type="line" smooth="no"/>
      <point x="788" y="878"/>
      <point x="901" y="961" type="qcurve" smooth="no"/>
      <point x="1040" y="744" type="line" smooth="no"/>
      <point x="923" y="651"/>
      <point x="843" y="432" type="qcurve" smooth="no"/>
      <point x="1022" y="0" type="line" smooth="no"/>
      <point x="682" y="0" type="line" smooth="no"/>
      <point x="645" y="97" type="line" smooth="no"/>
      <point x="600" y="41"/>
      <point x="464" y="-21"/>
      <point x="391" y="-21" type="qcurve" smooth="yes"/>
      <point x="329" y="-21"/>
      <point x="217" y="26"/>
      <point x="125" y="120"/>
      <point x="70" y="281"/>
    </contour>
    <contour>
      <point x="376" y="423" type="qcurve" smooth="yes"/>
      <point x="376" y="413" type="line" smooth="yes"/>
      <point x="376" y="380"/>
      <point x="378" y="339"/>
      <point x="390" y="271"/>
      <point x="422" y="235"/>
      <point x="447" y="235" type="qcurve" smooth="yes"/>
      <point x="468" y="235"/>
      <point x="505" y="256"/>
      <point x="525" y="282"/>
      <point x="543" y="317"/>
      <point x="547" y="330"/>
      <point x="548" y="334" type="qcurve" smooth="no"/>
      <point x="426" y="625" type="line" smooth="no"/>
      <point x="414" y="606" type="line" smooth="yes"/>
      <point x="401" y="588"/>
      <point x="376" y="487"/>
    </contour>
    <contour>
      <point x="532" y="1273" type="qcurve" smooth="yes"/>
      <point x="532" y="1219"/>
      <point x="575" y="1110" type="qcurve" smooth="no"/>
      <point x="592" y="1128" type="line" smooth="yes"/>
      <point x="610" y="1147"/>
      <point x="645" y="1229"/>
      <point x="645" y="1273" type="qcurve" smooth="yes"/>
      <point x="645" y="1336"/>
      <point x="586" y="1336" type="qcurve" smooth="yes"/>
      <point x="561" y="1336"/>
      <point x="532" y="1299"/>
    </contour>
  </outline>
</glyph>
<glyph name="quotesingle" format="1">
  <advance width="434"/>
  <unicode hex="0027"/>
  <outline>
    <contour>
      <point x="314" y="957" type="line" smooth="no"/>
      <point x="138" y="957" type="line" smooth="no"/>
      <point x="38" y="1593" type="line" smooth="no"/>
      <point x="390" y="1593" type="line" smooth="no"/>
    </contour>
  </outline>
</glyph>
<glyph name="parenleft" format="1">
  <advance width="622"/>
  <unicode hex="0028"/>
  <outline>
    <contour>
      <point x="556" y="268" type="qcurve" smooth="no"/>
      <point x="556" y="-17" type="line" smooth="no"/>
      <point x="485" y="-14"/>
      <point x="347" y="28"/>
      <point x="211" y="119"/>
      <point x="109" y="248"/>
      <point x="45" y="444"/>
      <point x="45" y="562" type="qcurve" smooth="yes"/>
      <point x="45" y="1151" type="line" smooth="yes"/>
      <point x="45" y="1434"/>
      <point x="307" y="1722"/>
      <point x="556" y="1729" type="qcurve" smooth="no"/>
      <point x="556" y="1462" type="line" smooth="no"/>
      <point x="533" y="1458"/>
      <point x="494" y="1443"/>
      <point x="467" y="1427"/>
      <point x="432" y="1378"/>
      <point x="419" y="1319"/>
      <point x="417" y="1271"/>
      <point x="417" y="1233" type="line" smooth="yes"/>
      <point x="417" y="450" type="line" smooth="yes"/>
      <point x="417" y="375"/>
      <point x="496" y="284"/>
    </contour>
  </outline>
</glyph>
<glyph name="asterisk" format="1">
  <advance width="922"/>
  <unicode hex="002a"/>
  <outline>
    <contour>
      <point x="150" y="1480" type="line" smooth="no"/>
      <point x="388" y="1301" type="line" smooth="no"/>
      <point x="345" y="1593" type="line" smooth="no"/>
      <point x="577" y="1593" type="line" smooth="no"/>
      <point x="542" y="1307" type="line" smooth="no"/>
      <point x="772" y="1480" type="line" smooth="no"/>
      <point x="888" y="1280" type="line" smooth="no"/>
      <point x="613" y="1171" type="line" smooth="no"/>
      <point x="888" y="1054" type="line" smooth="no"/>
      <point x="772" y="854" type="line" smooth="no"/>
      <point x="541" y="1036" type="line" smooth="no"/>
      <point x="577" y="741" type="line" smooth="no"/>
      <point x="345" y="741" type="line" smooth="no"/>
      <point x="389" y="1043" type="line" smooth="no"/>
      <point x="150" y="854" type="line" smooth="no"/>
      <point x="34" y="1054" type="line" smooth="no"/>
      <point x="308" y="1171" type="line" smooth="no"/>
      <point x="34" y="1280" type="line" smooth="no"/>
    </contour>
  </outline>
</glyph>
<glyph name="comma" format="1">
  <advance width="479"/>
  <unicode hex="002c"/>
  <outline>
    <contour>
      <point x="52" y="1" type="line" smooth="no"/>
      <point x="52" y="299" type="line" smooth="no"/>
      <point x="426" y="299" type="line" smooth="no"/>
      <point x="426" y="10" type="line" smooth="no"/>
      <point x="324" y="-235" type="line" smooth="no"/>
      <point x="113" y="-235" type="line" smooth="no"/>
      <point x="179" y="1" type="line" smooth="no"/>
    </contour>
  </outline>
</glyph>
<glyph name="period" format="1">
  <advance width="491"/>
  <unicode hex="002e"/>
  <outline>
    <contour>
      <point x="67" y="1" type="line" smooth="no"/>
      <point x="67" y="299" type="line" smooth="no"/>
      <point x="425" y="299" type="line" smooth="no"/>
      <point x="425" y="1" type="line" smooth="no"/>
    </contour>
  </outline>
</glyph>
<glyph name="zero" format="1">
  <advance width="1075"/>
  <unicode hex="0030"/>
  <outline>
    <contour>
      <point x="465" y="-18"/>
      <point x="334" y="16"/>
      <point x="213" y="93"/>
      <point x="123" y="206"/>
      <point x="70" y="377"/>
      <point x="70" y="482" type="qcurve" smooth="yes"/>
      <point x="70" y="1109" type="line" smooth="yes"/>
      <point x="70" y="1358"/>
      <point x="308" y="1607"/>
      <point x="764" y="1607"/>
      <point x="1002" y="1358"/>
      <point x="1002" y="1109" type="qcurve" smooth="yes"/>
      <point x="1002" y="482" type="line" smooth="yes"/>
      <point x="1002" y="377"/>
      <point x="949" y="206"/>
      <point x="859" y="93"/>
      <point x="738" y="16"/>
      <point x="607" y="-18"/>
    </contour>
    <contour>
      <point x="568" y="330"/>
      <point x="623" y="391"/>
      <point x="623" y="447" type="qcurve" smooth="yes"/>
      <point x="623" y="1151" type="line" smooth="yes"/>
      <point x="623" y="1177"/>
      <point x="622" y="1208"/>
      <point x="612" y="1255"/>
      <point x="595" y="1282"/>
      <point x="561" y="1302"/>
      <point x="511" y="1302"/>
      <point x="477" y="1282"/>
      <point x="460" y="1255"/>
      <point x="450" y="1208"/>
      <point x="449" y="1177"/>
      <point x="449" y="1151" type="qcurve" smooth="yes"/>
      <point x="449" y="447" type="line" smooth="yes"/>
      <point x="449" y="391"/>
      <point x="504" y="330"/>
    </contour>
  </outline>
</glyph>
<glyph name="one" format="1">
  <advance width="707"/>
  <unicode hex="0031"/>
  <outline>
    <contour>
      <point x="346" y="1592" type="qcurve" smooth="no"/>
      <point x="629" y="1592" type="line" smooth="no"/>
      <point x="629" y="0" type="line" smooth="no"/>
      <point x="256" y="0" type="line" smooth="no"/>
      <point x="256" y="1160" type="line" smooth="no"/>
      <point x="244" y="1154"/>
      <point x="203" y="1136"/>
      <point x="88" y="1106"/>
      <point x="38" y="1106" type="qcurve" smooth="no"/>
      <point x="38" y="1107" type="line" smooth="no"/>
      <point x="38" y="1108" type="line" smooth="no"/>
      <point x="38" y="1109" type="line" smooth="no"/>
      <point x="38" y="1110" type="line" smooth="no"/>
      <point x="38" y="1111" type="line" smooth="no"/>
      <point x="38" y="1112" type="line" smooth="no"/>
      <point x="38" y="1113" type="line" smooth="no"/>
      <point x="38" y="1114" type="line" smooth="no"/>
      <point x="38" y="1115" type="line" smooth="no"/>
      <point x="38" y="1116" type="line" smooth="no"/>
      <point x="38" y="1117" type="line" smooth="no"/>
      <point x="38" y="1118" type="line" smooth="no"/>
      <point x="38" y="1119" type="line" smooth="no"/>
      <point x="38" y="1120" type="line" smooth="no"/>
      <point x="38" y="1121" type="line" smooth="no"/>
      <point x="38" y="1122" type="line" smooth="no"/>
      <point x="38" y="1123" type="line" smooth="no"/>
      <point x="38" y="1124" type="line" smooth="no"/>
      <point x="38" y="1125" type="line" smooth="no"/>
      <point x="38" y="1126" type="line" smooth="no"/>
      <point x="38" y="1127" type="line" smooth="no"/>
      <point x="38" y="1128" type="line" smooth="no"/>
      <point x="38" y="1129" type="line" smooth="no"/>
      <point x="38" y="1130" type="line" smooth="no"/>
      <point x="38" y="1131" type="line" smooth="no"/>
      <point x="38" y="1132" type="line" smooth="no"/>
      <point x="38" y="1133" type="line" smooth="no"/>
      <point x="38" y="1134" type="line" smooth="no"/>
      <point x="38" y="1135" type="line" smooth="no"/>
      <point x="38" y="1136" type="line" smooth="no"/>
      <point x="38" y="1137" type="line" smooth="no"/>
      <point x="38" y="1138" type="line" smooth="no"/>
      <point x="38" y="1139" type="line" smooth="no"/>
      <point x="38" y="1140" type="line" smooth="no"/>
      <point x="38" y="1141" type="line" smooth="no"/>
      <point x="38" y="1142" type="line" smooth="no"/>
      <point x="38" y="1143" type="line" smooth="no"/>
      <point x="38" y="1144" type="line" smooth="no"/>
      <point x="38" y="1145" type="line" smooth="no"/>
      <point x="38" y="1146" type="line" smooth="no"/>
      <point x="38" y="1147" type="line" smooth="no"/>
      <point x="38" y="1148" type="line" smooth="no"/>
      <point x="38" y="1149" type="line" smooth="no"/>
      <point x="38" y="1150" type="line" smooth="no"/>
      <point x="38" y="1151" type="line" smooth="no"/>
      <point x="38" y="1152" type="line" smooth="no"/>
      <point x="38" y="1153" type="line" smooth="no"/>
      <point x="38" y="1154" type="line" smooth="no"/>
      <point x="38" y="1155" type="line" smooth="no"/>
      <point x="38" y="1157" type="line" smooth="no"/>
      <point x="38" y="1158" type="line" smooth="no"/>
      <point x="38" y="1159" type="line" smooth="no"/>
      <point x="38" y="1160" type="line" smooth="no"/>
      <point x="38" y="1161" type="line" smooth="no"/>
      <point x="38" y="1162" type="line" smooth="no"/>
      <point x="38" y="1163" type="line" smooth="no"/>
      <point x="38" y="1164" type="line" smooth="no"/>
      <point x="38" y="1165" type="line" smooth="no"/>
      <point x="38" y="1166" type="line" smooth="no"/>
      <point x="38" y="1168" type="line" smooth="no"/>
      <point x="38" y="1169" type="line" smooth="no"/>
      <point x="38" y="1170" type="line" smooth="no"/>
      <point x="38" y="1171" type="line" smooth="no"/>
      <point x="38" y="1172" type="line" smooth="no"/>
      <point x="38" y="1173" type="line" smooth="no"/>
      <point x="38" y="1175" type="line" smooth="no"/>
      <point x="38" y="1176" type="line" smooth="no"/>
      <point x="38" y="1177" type="line" smooth="no"/>
      <point x="38" y="1178" type="line" smooth="no"/>
      <point x="38" y="1179" type="line" smooth="no"/>
      <point x="38" y="1181" type="line" smooth="no"/>
      <point x="38" y="1182" type="line" smooth="no"/>
      <point x="38" y="1183" type="line" smooth="no"/>
      <point x="38" y="1184" type="line" smooth="no"/>
      <point x="38" y="1186" type="line" smooth="no"/>
      <point x="38" y="1187" type="line" smooth="no"/>
      <point x="38" y="1188" type="line" smooth="no"/>
      <point x="38" y="1189" type="line" smooth="no"/>
      <point x="38" y="1191" type="line" smooth="no"/>
      <point x="38" y="1192" type="line" smooth="no"/>
      <point x="38" y="1193" type="line" smooth="no"/>
      <point x="38" y="1194" type="line" smooth="no"/>
      <point x="38" y="1196" type="line" smooth="no"/>
      <point x="38" y="1197" type="line" smooth="no"/>
      <point x="38" y="1198" type="line" smooth="no"/>
      <point x="38" y="1200" type="line" smooth="no"/>
      <point x="38" y="1201" type="line" smooth="no"/>
      <point x="38" y="1202" type="line" smooth="no"/>
      <point x="38" y="1204" type="line" smooth="no"/>
      <point x="38" y="1205" type="line" smooth="no"/>
      <point x="38" y="1206" type="line" smooth="no"/>
      <point x="38" y="1208" type="line" smooth="no"/>
      <point x="38" y="1209" type="line" smooth="no"/>
      <point x="38" y="1210" type="line" smooth="no"/>
      <point x="38" y="1212" type="line" smooth="no"/>
      <point x="38" y="1213" type="line" smooth="no"/>
      <point x="38" y="1215" type="line" smooth="no"/>
      <point x="38" y="1216" type="line" smooth="no"/>
      <point x="38" y="1217" type="line" smooth="no"/>
      <point x="38" y="1219" type="line" smooth="no"/>
      <point x="38" y="1220" type="line" smooth="no"/>
      <point x="38" y="1222" type="line" smooth="no"/>
      <point x="38" y="1223" type="line" smooth="no"/>
      <point x="38" y="1224" type="line" smooth="no"/>
      <point x="38" y="1226" type="line" smooth="no"/>
      <point x="38" y="1227" type="line" smooth="no"/>
      <point x="38" y="1229" type="line" smooth="no"/>
      <point x="38" y="1230" type="line" smooth="no"/>
      <point x="38" y="1232" type="line" smooth="no"/>
      <point x="38" y="1233" type="line" smooth="no"/>
      <point x="38" y="1235" type="line" smooth="no"/>
      <point x="38" y="1236" type="line" smooth="no"/>
      <point x="38" y="1237" type="line" smooth="no"/>
      <point x="38" y="1239" type="line" smooth="no"/>
      <point x="38" y="1240" type="line" smooth="no"/>
      <point x="38" y="1242" type="line" smooth="no"/>
      <point x="38" y="1243" type="line" smooth="no"/>
      <point x="38" y="1245" type="line" smooth="no"/>
      <point x="38" y="1246" type="line" smooth="no"/>
      <point x="38" y="1248" type="line" smooth="no"/>
      <point x="38" y="1249" type="line" smooth="no"/>
      <point x="38" y="1251" type="line" smooth="no"/>
      <point x="38" y="1253" type="line" smooth="no"/>
      <point x="38" y="1254" type="line" smooth="no"/>
      <point x="38" y="1256" type="line" smooth="no"/>
      <point x="38" y="1257" type="line" smooth="no"/>
      <point x="38" y="1259" type="line" smooth="no"/>
      <point x="38" y="1260" type="line" smooth="no"/>
      <point x="38" y="1262" type="line" smooth="no"/>
      <point x="38" y="1263" type="line" smooth="no"/>
      <point x="38" y="1265" type="line" smooth="no"/>
      <point x="38" y="1267" type="line" smooth="no"/>
      <point x="38" y="1268" type="line" smooth="no"/>
      <point x="38" y="1270" type="line" smooth="no"/>
      <point x="38" y="1271" type="line" smooth="no"/>
      <point x="38" y="1273" type="line" smooth="no"/>
      <point x="38" y="1275" type="line" smooth="no"/>
      <point x="38" y="1276" type="line" smooth="no"/>
      <point x="38" y="1278" type="line" smooth="no"/>
      <point x="38" y="1279" type="line" smooth="no"/>
      <point x="38" y="1281" type="line" smooth="no"/>
      <point x="38" y="1283" type="line" smooth="no"/>
      <point x="38" y="1284" type="line" smooth="no"/>
      <point x="38" y="1286" type="line" smooth="no"/>
      <point x="38" y="1288" type="line" smooth="no"/>
      <point x="38" y="1289" type="line" smooth="no"/>
      <point x="38" y="1291" type="line" smooth="no"/>
      <point x="38" y="1292" type="line" smooth="no"/>
      <point x="38" y="1294" type="line" smooth="no"/>
      <point x="38" y="1296" type="line" smooth="no"/>
      <point x="38" y="1297" type="line" smooth="no"/>
      <point x="38" y="1299" type="line" smooth="no"/>
      <point x="38" y="1301" type="line" smooth="no"/>
      <point x="38" y="1303" type="line" smooth="no"/>
      <point x="38" y="1304" type="line" smooth="no"/>
      <point x="38" y="1306" type="line" smooth="no"/>
      <point x="38" y="1308" type="line" smooth="no"/>
      <point x="38" y="1309" type="line" smooth="no"/>
      <point x="38" y="1311" type="line" smooth="no"/>
      <point x="38" y="1313" type="line" smooth="no"/>
      <point x="38" y="1314" type="line" smooth="no"/>
      <point x="38" y="1316" type="line" smooth="no"/>
      <point x="38" y="1318" type="line" smooth="no"/>
      <point x="38" y="1320" type="line" smooth="no"/>
      <point x="38" y="1321" type="line" smooth="no"/>
      <point x="38" y="1323" type="line" smooth="no"/>
      <point x="38" y="1325" type="line" smooth="no"/>
      <point x="38" y="1327" type="line" smooth="no"/>
      <point x="38" y="1328" type="line" smooth="no"/>
      <point x="38" y="1330" type="line" smooth="no"/>
      <point x="38" y="1332" type="line" smooth="no"/>
      <point x="38" y="1334" type="line" smooth="no"/>
      <point x="38" y="1335" type="line" smooth="no"/>
      <point x="38" y="1337" type="line" smooth="no"/>
      <point x="38" y="1339" type="line" smooth="no"/>
      <point x="38" y="1341" type="line" smooth="no"/>
      <point x="38" y="1343" type="line" smooth="no"/>
      <point x="38" y="1344" type="line" smooth="no"/>
      <point x="38" y="1346" type="line" smooth="no"/>
      <point x="38" y="1348" type="line" smooth="no"/>
      <point x="38" y="1350" type="line" smooth="no"/>
      <point x="38" y="1352" type="line" smooth="no"/>
      <point x="38" y="1354" type="line" smooth="no"/>
      <point x="38" y="1355" type="line" smooth="no"/>
      <point x="38" y="1357" type="line" smooth="no"/>
      <point x="38" y="1359" type="line" smooth="no"/>
      <point x="38" y="1361" type="line" smooth="no"/>
      <point x="38" y="1363" type="line" smooth="no"/>
      <point x="38" y="1365" type="line" smooth="no"/>
      <point x="38" y="1366" type="line" smooth="no"/>
      <point x="38" y="1368" type="line" smooth="no"/>
      <point x="38" y="1370" type="line" smooth="no"/>
      <point x="38" y="1379" type="line" smooth="no"/>
      <point x="66" y="1379"/>
      <point x="164" y="1409"/>
      <point x="270" y="1461"/>
      <point x="346" y="1545"/>
    </contour>
  </outline>
</glyph>
<glyph name="four" format="1">
  <advance width="1122"/>
  <unicode hex="0034"/>
  <outline>
    <contour>
      <point x="1051" y="575" type="line" smooth="no"/>
      <point x="1051" y="270" type="line" smooth="no"/>
      <point x="981" y="270" type="line" smooth="no"/>
      <point x="981" y="-1" type="line" smooth="no"/>
      <point x="612" y="-1" type="line" smooth="no"/>
      <point x="612" y="270" type="line" smooth="no"/>
      <point x="70" y="270" type="line" smooth="no"/>
      <point x="70" y="537" type="line" smooth="no"/>
      <point x="423" y="1592" type="line" smooth="no"/>
      <point x="981" y="1592" type="line" smooth="no"/>
      <point x="981" y="575" type="line" smooth="no"/>
    </contour>
    <contour>
      <point x="414" y="575" type="line" smooth="no"/>
      <point x="612" y="575" type="line" smooth="no"/>
      <point x="612" y="1299" type="line" smooth="no"/>
    </contour>
  </outline>
</glyph>
<glyph name="five" format="1">
  <advance width="1069"/>
  <unicode hex="0035"/>
  <outline>
    <contour>
      <point x="530" y="-24" type="qcurve" smooth="yes"/>
      <point x="321" y="-24"/>
      <point x="70" y="175"/>
      <point x="70" y="373" type="qcurve" smooth="yes"/>
      <point x="70" y="627" type="line" smooth="no"/>
      <point x="436" y="627" type="line" smooth="no"/>
      <point x="436" y="481" type="line" smooth="yes"/>
      <point x="436" y="429"/>
      <point x="449" y="356"/>
      <point x="467" y="319"/>
      <point x="496" y="298"/>
      <point x="516" y="295"/>
      <point x="530" y="295" type="qcurve" smooth="yes"/>
      <point x="584" y="295"/>
      <point x="623" y="366"/>
      <point x="623" y="428" type="qcurve" smooth="yes"/>
      <point x="623" y="764" type="line" smooth="yes"/>
      <point x="623" y="789"/>
      <point x="621" y="824"/>
      <point x="612" y="880"/>
      <point x="594" y="915"/>
      <point x="557" y="942"/>
      <point x="532" y="942" type="qcurve" smooth="yes"/>
      <point x="432" y="942"/>
      <point x="432" y="801" type="qcurve" smooth="no"/>
      <point x="109" y="801" type="line" smooth="no"/>
      <point x="109" y="1690" type="line" smooth="no"/>
      <point x="948" y="1690" type="line" smooth="no"/>
      <point x="948" y="1370" type="line" smooth="no"/>
      <point x="443" y="1370" type="line" smooth="no"/>
      <point x="444" y="1178" type="line" smooth="no"/>
      <point x="498" y="1227"/>
      <point x="618" y="1227" type="qcurve" smooth="yes"/>
      <point x="708" y="1227"/>
      <point x="843" y="1171"/>
      <point x="929" y="1074"/>
      <point x="981" y="925"/>
      <point x="1001" y="757"/>
      <point x="1001" y="649" type="qcurve" smooth="yes"/>
      <point x="1001" y="576"/>
      <point x="1000" y="502"/>
      <point x="992" y="366"/>
      <point x="976" y="292"/>
      <point x="943" y="180"/>
      <point x="897" y="117"/>
      <point x="826" y="42"/>
      <point x="733" y="3"/>
      <point x="607" y="-24"/>
    </contour>
  </outline>
</glyph>
<glyph name="six" format="1">
  <advance width="1075"/>
  <unicode hex="0036"/>
  <outline>
    <contour>
      <point x="545" y="-21" type="qcurve" smooth="yes"/>
      <point x="456" y="-21"/>
      <point x="314" y="9"/>
      <point x="215" y="58"/>
      <point x="144" y="139"/>
      <point x="102" y="225"/>
      <point x="78" y="344"/>
      <point x="70" y="455"/>
      <point x="70" y="527" type="qcurve" smooth="yes"/>
      <point x="70" y="874" type="line" smooth="yes"/>
      <point x="70" y="878" type="line" smooth="yes"/>
      <point x="70" y="983"/>
      <point x="72" y="1089"/>
      <point x="90" y="1272"/>
      <point x="126" y="1370"/>
      <point x="196" y="1497"/>
      <point x="297" y="1560"/>
      <point x="454" y="1607"/>
      <point x="555" y="1607" type="qcurve" smooth="yes"/>
      <point x="630" y="1607"/>
      <point x="785" y="1565"/>
      <point x="921" y="1485"/>
      <point x="1006" y="1353"/>
      <point x="1006" y="1272" type="qcurve" smooth="yes"/>
      <point x="1006" y="1087" type="line" smooth="no"/>
      <point x="637" y="1087" type="line" smooth="no"/>
      <point x="637" y="1151"/>
      <point x="636" y="1190"/>
      <point x="627" y="1246"/>
      <point x="609" y="1281"/>
      <point x="574" y="1307"/>
      <point x="549" y="1307" type="qcurve" smooth="yes"/>
      <point x="519" y="1307"/>
      <point x="477" y="1288"/>
      <point x="456" y="1264"/>
      <point x="445" y="1224"/>
      <point x="444" y="1202"/>
      <point x="444" y="1184" type="qcurve" smooth="yes"/>
      <point x="444" y="895" type="line" smooth="no"/>
      <point x="450" y="906" type="line" smooth="yes"/>
      <point x="456" y="916"/>
      <point x="470" y="931" type="qcurve" smooth="yes"/>
      <point x="485" y="946"/>
      <point x="527" y="975"/>
      <point x="599" y="996"/>
      <point x="641" y="996" type="qcurve" smooth="yes"/>
      <point x="843" y="996"/>
      <point x="1004" y="768"/>
      <point x="1004" y="517" type="qcurve" smooth="yes"/>
      <point x="1004" y="422"/>
      <point x="983" y="275"/>
      <point x="924" y="131"/>
      <point x="824" y="37"/>
      <point x="658" y="-21"/>
    </contour>
    <contour>
      <point x="444" y="573" type="qcurve" smooth="yes"/>
      <point x="444" y="419" type="line" smooth="yes"/>
      <point x="444" y="293"/>
      <point x="532" y="293" type="qcurve" smooth="yes"/>
      <point x="586" y="293"/>
      <point x="605" y="343" type="qcurve" smooth="yes"/>
      <point x="618" y="377"/>
      <point x="618" y="475" type="qcurve" smooth="yes"/>
      <point x="618" y="554" type="line" smooth="yes"/>
      <point x="618" y="694"/>
      <point x="537" y="694" type="qcurve" smooth="yes"/>
      <point x="444" y="694"/>
    </contour>
  </outline>
</glyph>
<glyph name="seven" format="1">
  <advance width="1018"/>
  <unicode hex="0037"/>
  <outline>
    <contour>
      <point x="141" y="1" type="qcurve" smooth="no"/>
      <point x="153" y="178"/>
      <point x="233" y="535"/>
      <point x="340" y="829"/>
      <point x="543" y="1315"/>
      <point x="563" y="1389" type="qcurve" smooth="no"/>
      <point x="66" y="1389" type="line" smooth="no"/>
      <point x="66" y="1706" type="line" smooth="no"/>
      <point x="954" y="1706" type="line" smooth="no"/>
      <point x="954" y="1451" type="line" smooth="no"/>
      <point x="947" y="1388"/>
      <point x="885" y="1215"/>
      <point x="803" y="1041"/>
      <point x="705" y="796"/>
      <point x="620" y="540"/>
      <point x="551" y="188"/>
      <point x="539" y="1" type="qcurve" smooth="no"/>
      <point x="306" y="0" type="line" smooth="yes"/>
      <point x="275" y="0"/>
      <point x="162" y="1"/>
    </contour>
  </outline>
</glyph>
<glyph name="eight" format="1">
  <advance width="1069"/>
  <unicode hex="0038"/>
  <outline>
    <contour>
      <point x="536" y="791" type="qcurve" smooth="yes"/>
      <point x="519" y="791"/>
      <point x="490" y="777"/>
      <point x="471" y="754"/>
      <point x="456" y="722"/>
      <point x="448" y="686"/>
      <point x="443" y="647"/>
      <point x="442" y="608"/>
      <point x="440" y="572"/>
      <point x="441" y="558" type="qcurve" smooth="yes"/>
      <point x="441" y="544" type="line" smooth="yes"/>
      <point x="441" y="538"/>
      <point x="440" y="500"/>
      <point x="440" y="488" type="qcurve" smooth="yes"/>
      <point x="440" y="319"/>
      <point x="632" y="319"/>
      <point x="632" y="488" type="qcurve" smooth="yes"/>
      <point x="632" y="508"/>
      <point x="631" y="561"/>
      <point x="631" y="575" type="qcurve" smooth="yes"/>
      <point x="631" y="615"/>
      <point x="626" y="675"/>
      <point x="609" y="750"/>
      <point x="568" y="791"/>
    </contour>
    <contour>
      <point x="536" y="1730" type="qcurve" smooth="yes"/>
      <point x="761" y="1730"/>
      <point x="996" y="1523"/>
      <point x="996" y="1283" type="qcurve" smooth="yes"/>
      <point x="996" y="1239"/>
      <point x="993" y="1182"/>
      <point x="977" y="1093"/>
      <point x="948" y="1032"/>
      <point x="889" y="972"/>
      <point x="847" y="955" type="qcurve" smooth="no"/>
      <point x="875" y="942"/>
      <point x="919" y="909"/>
      <point x="950" y="870"/>
      <point x="972" y="825"/>
      <point x="986" y="774"/>
      <point x="994" y="717"/>
      <point x="996" y="656"/>
      <point x="998" y="588"/>
      <point x="998" y="552" type="qcurve" smooth="yes"/>
      <point x="998" y="524"/>
      <point x="997" y="510" type="qcurve" smooth="yes"/>
      <point x="997" y="387"/>
      <point x="949" y="200"/>
      <point x="868" y="83"/>
      <point x="747" y="10"/>
      <point x="617" y="-18"/>
      <point x="455" y="-18"/>
      <point x="325" y="10"/>
      <point x="204" y="83"/>
      <point x="123" y="200"/>
      <point x="75" y="387"/>
      <point x="75" y="510" type="qcurve" smooth="yes"/>
      <point x="75" y="552" type="line" smooth="yes"/>
      <point x="75" y="647"/>
      <point x="78" y="727"/>
      <point x="86" y="768"/>
      <point x="100" y="830"/>
      <point x="122" y="867"/>
      <point x="153" y="911"/>
      <point x="197" y="943"/>
      <point x="225" y="957" type="qcurve" smooth="no"/>
      <point x="197" y="968"/>
      <point x="153" y="998"/>
      <point x="122" y="1041"/>
      <point x="100" y="1078"/>
      <point x="79" y="1172"/>
      <point x="76" y="1238"/>
      <point x="76" y="1296" type="line" smooth="yes"/>
      <point x="76" y="1415"/>
      <point x="141" y="1586"/>
      <point x="265" y="1685"/>
      <point x="429" y="1730"/>
    </contour>
    <contour>
      <point x="629" y="1101"/>
      <point x="629" y="1264" type="qcurve" smooth="yes"/>
      <point x="629" y="1301"/>
      <point x="615" y="1364"/>
      <point x="571" y="1416"/>
      <point x="501" y="1416"/>
      <point x="457" y="1364"/>
      <point x="443" y="1301"/>
      <point x="443" y="1264" type="qcurve" smooth="yes"/>
      <point x="443" y="1101"/>
    </contour>
  </outline>
</glyph>
<glyph name="equal" format="1">
  <advance width="648"/>
  <unicode hex="003d"/>
  <outline>
    <contour>
      <point x="67" y="509" type="line" smooth="no"/>
      <point x="67" y="741" type="line" smooth="no"/>
      <point x="581" y="741" type="line" smooth="no"/>
      <point x="581" y="509" type="line" smooth="no"/>
    </contour>
    <contour>
      <point x="67" y="892" type="line" smooth="no"/>
      <point x="67" y="1116" type="line" smooth="no"/>
      <point x="581" y="1116" type="line" smooth="no"/>
      <point x="581" y="892" type="line" smooth="no"/>
    </contour>
  </outline>
</glyph>
<glyph name="greater" format="1">
  <advance width="652"/>
  <unicode hex="003e"/>
  <outline>
    <contour>
      <point x="637" y="545" type="line" smooth="no"/>
      <point x="67" y="200" type="line" smooth="no"/>
      <point x="67" y="558" type="line" smooth="no"/>
      <point x="409" y="749" type="line" smooth="no"/>
      <point x="67" y="941" type="line" smooth="no"/>
      <point x="67" y="1300" type="line" smooth="no"/>
      <point x="637" y="959" type="line" smooth="no"/>
    </contour>
  </outline>
</glyph>
<glyph name="question" format="1">
  <advance width="1007"/>
  <unicode hex="003f"/>
  <outline>
    <contour>
      <point x="512" y="1690" type="qcurve" smooth="yes"/>
      <point x="598" y="1690"/>
      <point x="737" y="1658"/>
      <point x="834" y="1604"/>
      <point x="906" y="1521"/>
      <point x="948" y="1431"/>
      <point x="973" y="1314"/>
      <point x="982" y="1206"/>
      <point x="982" y="1140" type="qcurve" smooth="yes"/>
      <point x="982" y="1019"/>
      <point x="924" y="821"/>
      <point x="804" y="665"/>
      <point x="601" y="579"/>
      <point x="464" y="579" type="qcurve" smooth="no"/>
      <point x="464" y="409" type="line" smooth="no"/>
      <point x="131" y="409" type="line" smooth="no"/>
      <point x="131" y="825" type="line" smooth="no"/>
      <point x="214" y="825"/>
      <point x="340" y="833"/>
      <point x="439" y="855"/>
      <point x="507" y="882"/>
      <point x="556" y="932"/>
      <point x="584" y="983"/>
      <point x="600" y="1067"/>
      <point x="605" y="1147"/>
      <point x="605" y="1208" type="qcurve" smooth="yes"/>
      <point x="605" y="1284"/>
      <point x="566" y="1371"/>
      <point x="512" y="1371" type="qcurve" smooth="yes"/>
      <point x="498" y="1371"/>
      <point x="478" y="1368"/>
      <point x="449" y="1347"/>
      <point x="431" y="1310"/>
      <point x="418" y="1237"/>
      <point x="418" y="1185" type="qcurve" smooth="yes"/>
      <point x="418" y="1039" type="line" smooth="no"/>
      <point x="52" y="1039" type="line" smooth="no"/>
      <point x="52" y="1293" type="line" smooth="yes"/>
      <point x="52" y="1491"/>
      <point x="303" y="1690"/>
    </contour>
    <contour>
      <point x="120" y="1" type="line" smooth="no"/>
      <point x="120" y="299" type="line" smooth="no"/>
      <point x="478" y="299" type="line" smooth="no"/>
      <point x="478" y="1" type="line" smooth="no"/>
    </contour>
  </outline>
</glyph>
<glyph name="C" format="1">
  <advance width="1016"/>
  <unicode hex="0043"/>
  <outline>
    <contour>
      <point x="944" y="686" type="line" smooth="no"/>
      <point x="944" y="385" type="line" smooth="yes"/>
      <point x="944" y="177"/>
      <point x="708" y="-18"/>
      <point x="496" y="-18" type="qcurve" smooth="yes"/>
      <point x="308" y="-18"/>
      <point x="72" y="197"/>
      <point x="72" y="395" type="qcurve" smooth="yes"/>
      <point x="72" y="1134" type="line" smooth="yes"/>
      <point x="72" y="1371"/>
      <point x="281" y="1606"/>
      <point x="504" y="1606" type="qcurve" smooth="yes"/>
      <point x="595" y="1606"/>
      <point x="749" y="1561"/>
      <point x="868" y="1473"/>
      <point x="936" y="1330"/>
      <point x="936" y="1237" type="qcurve" smooth="yes"/>
      <point x="936" y="956" type="line" smooth="no"/>
      <point x="588" y="956" type="line" smooth="no"/>
      <point x="588" y="1141" type="line" smooth="yes"/>
      <point x="588" y="1284"/>
      <point x="504" y="1284" type="qcurve" smooth="yes"/>
      <point x="454" y="1284"/>
      <point x="422" y="1221"/>
      <point x="422" y="1165" type="qcurve" smooth="yes"/>
      <point x="422" y="412" type="line" smooth="yes"/>
      <point x="422" y="363"/>
      <point x="467" y="291"/>
      <point x="504" y="291" type="qcurve" smooth="yes"/>
      <point x="538" y="291"/>
      <point x="588" y="344"/>
      <point x="588" y="412" type="qcurve" smooth="yes"/>
      <point x="588" y="686" type="line" smooth="no"/>
    </contour>
  </outline>
</glyph>
<glyph name="F" format="1">
  <advance width="829"/>
  <unicode hex="0046"/>
  <outline>
    <contour>
      <point x="72" y="0" type="line" smooth="no"/>
      <point x="72" y="1593" type="line" smooth="no"/>
      <point x="776" y="1593" type="line" smooth="no"/>
      <point x="776" y="1282" type="line" smooth="no"/>
      <point x="426" y="1282" type="line" smooth="no"/>
      <point x="426" y="1030" type="line" smooth="no"/>
      <point x="758" y="1030" type="line" smooth="no"/>
      <point x="758" y="723" type="line" smooth="no"/>
      <point x="426" y="723" type="line" smooth="no"/>
      <point x="426" y="0" type="line" smooth="no"/>
    </contour>
  </outline>
</glyph>
<glyph name="G" format="1">
  <advance width="1010"/>
  <unicode hex="0047"/>
  <outline>
    <contour>
      <point x="799" y="0" type="line" smooth="no"/>
      <point x="739" y="135" type="line" smooth="no"/>
      <point x="645" y="-18"/>
      <point x="449" y="-18" type="qcurve" smooth="yes"/>
      <point x="68" y="-18"/>
      <point x="68" y="475" type="qcurve" smooth="yes"/>
      <point x="68" y="1165" type="line" smooth="yes"/>
      <point x="68" y="1278"/>
      <point x="128" y="1446"/>
      <point x="215" y="1537"/>
      <point x="341" y="1591"/>
      <point x="444" y="1606"/>
      <point x="504" y="1606" type="qcurve" smooth="yes"/>
      <point x="578" y="1606"/>
      <point x="698" y="1585"/>
      <point x="785" y="1541"/>
      <point x="851" y="1486"/>
      <point x="894" y="1405"/>
      <point x="921" y="1326"/>
      <point x="935" y="1215"/>
      <point x="940" y="1119"/>
      <point x="940" y="1054" type="qcurve" smooth="no"/>
      <point x="604" y="1054" type="line" smooth="no"/>
      <point x="604" y="1180" type="line" smooth="yes"/>
      <point x="604" y="1218"/>
      <point x="588" y="1268"/>
      <point x="559" y="1289"/>
      <point x="535" y="1296"/>
      <point x="520" y="1296" type="qcurve" smooth="yes"/>
      <point x="490" y="1296"/>
      <point x="453" y="1280"/>
      <point x="432" y="1256"/>
      <point x="422" y="1193"/>
      <point x="420" y="1137"/>
      <point x="420" y="1077" type="qcurve" smooth="yes"/>
      <point x="420" y="461" type="line" smooth="yes"/>
      <point x="420" y="426"/>
      <point x="425" y="378"/>
      <point x="443" y="322"/>
      <point x="484" y="293"/>
      <point x="516" y="293" type="qcurve" smooth="yes"/>
      <point x="569" y="293"/>
      <point x="604" y="376"/>
      <point x="604" y="469" type="qcurve" smooth="yes"/>
      <point x="604" y="653" type="line" smooth="no"/>
      <point x="510" y="653" type="line" smooth="no"/>
      <point x="510" y="928" type="line" smooth="no"/>
      <point x="936" y="928" type="line" smooth="no"/>
      <point x="936" y="0" type="line" smooth="no"/>
    </contour>
  </outline>
</glyph>
<glyph name="H" format="1">
  <advance width="1020"/>
  <unicode hex="0048"/>
  <outline>
    <contour>
      <point x="424" y="723" type="line" smooth="no"/>
      <point x="424" y="0" type="line" smooth="no"/>
      <point x="74" y="0" type="line" smooth="no"/>
      <point x="74" y="1593" type="line" smooth="no"/>
      <point x="424" y="1593" type="line" smooth="no"/>
      <point x="424" y="1024" type="line" smooth="no"/>
      <point x="590" y="1024" type="line" smooth="no"/>
      <point x="590" y="1593" type="line" smooth="no"/>
      <point x="940" y="1593" type="line" smooth="no"/>
      <point x="940" y="0" type="line" smooth="no"/>
      <point x="590" y="0" type="line" smooth="no"/>
      <point x="590" y="723" type="line" smooth="no"/>
    </contour>
  </outline>
</glyph>
<glyph name="I" format="1">
  <advance width="498"/>
  <unicode hex="0049"/>
  <outline>
    <contour>
      <point x="76" y="0" type="line" smooth="no"/>
      <point x="76" y="1593" type="line" smooth="no"/>
      <point x="416" y="1593" type="line" smooth="no"/>
      <point x="416" y="0" type="line" smooth="no"/>
    </contour>
  </outline>
</glyph>
<glyph name="K" format="1">
  <advance width="1053"/>
  <unicode hex="004b"/>
  <outline>
    <contour>
      <point x="586" y="1593" type="line" smooth="no"/>
      <point x="940" y="1593" type="line" smooth="no"/>
      <point x="743" y="864" type="line" smooth="no"/>
      <point x="981" y="0" type="line" smooth="no"/>
      <point x="616" y="0" type="line" smooth="no"/>
      <point x="424" y="772" type="line" smooth="no"/>
      <point x="424" y="0" type="line" smooth="no"/>
      <point x="74" y="0" type="line" smooth="no"/>
      <point x="74" y="1593" type="line" smooth="no"/>
      <point x="422" y="1593" type="line" smooth="no"/>
      <point x="422" y="956" type="line" smooth="no"/>
    </contour>
  </outline>
</glyph>
<glyph name="L" format="1">
  <advance width="858"/>
  <unicode hex="004c"/>
  <outline>
    <contour>
      <point x="70" y="0" type="line" smooth="no"/>
      <point x="70" y="1593" type="line" smooth="no"/>
      <point x="422" y="1593" type="line" smooth="no"/>
      <point x="422" y="311" type="line" smooth="no"/>
      <point x="784" y="311" type="line" smooth="no"/>
      <point x="784" y="0" type="line" smooth="no"/>
    </contour>
  </outline>
</glyph>
<glyph name="N" format="1">
  <advance width="1020"/>
  <unicode hex="004e"/>
  <outline>
    <contour>
      <point x="940" y="1593" type="line" smooth="no"/>
      <point x="940" y="0" type="line" smooth="no"/>
      <point x="596" y="0" type="line" smooth="no"/>
      <point x="420" y="797" type="line" smooth="no"/>
      <point x="420" y="0" type="line" smooth="no"/>
      <point x="76" y="0" type="line" smooth="no"/>
      <point x="76" y="1593" type="line" smooth="no"/>
      <point x="438" y="1593" type="line" smooth="no"/>
      <point x="600" y="831" type="line" smooth="no"/>
      <point x="600" y="1593" type="line" smooth="no"/>
    </contour>
  </outline>
</glyph>
<glyph name="R" format="1">
  <advance width="1001"/>
  <unicode hex="0052"/>
  <outline>
    <contour>
      <point x="428" y="725" type="qcurve" smooth="no"/>
      <point x="428" y="0" type="line" smooth="no"/>
      <point x="72" y="0" type="line" smooth="no"/>
      <point x="72" y="1593" type="line" smooth="no"/>
      <point x="612" y="1593" type="line" smooth="yes"/>
      <point x="695" y="1593"/>
      <point x="813" y="1548"/>
      <point x="881" y="1475"/>
      <point x="920" y="1354"/>
      <point x="932" y="1233"/>
      <point x="932" y="1147" type="qcurve" smooth="yes"/>
      <point x="932" y="1102"/>
      <point x="929" y="1045"/>
      <point x="910" y="958"/>
      <point x="876" y="900"/>
      <point x="807" y="844"/>
      <point x="758" y="829" type="qcurve" smooth="no"/>
      <point x="807" y="820"/>
      <point x="871" y="771"/>
      <point x="899" y="699"/>
      <point x="909" y="638"/>
      <point x="909" y="600" type="qcurve" smooth="yes"/>
      <point x="909" y="205"/>
      <point x="905" y="0" type="qcurve" smooth="no"/>
      <point x="561" y="0" type="line" smooth="no"/>
      <point x="561" y="621" type="line" smooth="yes"/>
      <point x="561" y="658"/>
      <point x="546" y="702"/>
      <point x="505" y="721"/>
      <point x="467" y="725"/>
    </contour>
    <contour>
      <point x="430" y="1298" type="line" smooth="no"/>
      <point x="430" y="1001" type="line" smooth="no"/>
      <point x="518" y="1001" type="line" smooth="yes"/>
      <point x="588" y="1001"/>
      <point x="588" y="1147" type="qcurve" smooth="yes"/>
      <point x="588" y="1244"/>
      <point x="533" y="1298"/>
      <point x="449" y="1298" type="qcurve" smooth="yes"/>
    </contour>
  </outline>
</glyph>
<glyph name="T" format="1">
  <advance width="903"/>
  <unicode hex="0054"/>
  <outline>
    <contour>
      <point x="66" y="1593" type="line" smooth="no"/>
      <point x="836" y="1593" type="line" smooth="no"/>
      <point x="836" y="1286" type="line" smooth="no"/>
      <point x="627" y="1286" type="line" smooth="no"/>
      <point x="627" y="0" type="line" smooth="no"/>
      <point x="275" y="0" type="line" smooth="no"/>
      <point x="275" y="1286" type="line" smooth="no"/>
      <point x="66" y="1286" type="line" smooth="no"/>
    </contour>
  </outline>
</glyph>
<glyph name="W" format="1">
  <advance width="1532"/>
  <unicode hex="0057"/>
  <outline>
    <contour>
      <point x="505" y="588" type="line" smooth="no"/>
      <point x="604" y="1593" type="line" smooth="no"/>
      <point x="932" y="1593" type="line" smooth="no"/>
      <point x="1026" y="588" type="line" smooth="no"/>
      <point x="1120" y="1593" type="line" smooth="no"/>
      <point x="1468" y="1593" type="line" smooth="no"/>
      <point x="1276" y="0" type="line" smooth="no"/>
      <point x="854" y="0" type="line" smooth="no"/>
      <point x="766" y="768" type="line" smooth="no"/>
      <point x="682" y="0" type="line" smooth="no"/>
      <point x="253" y="0" type="line" smooth="no"/>
      <point x="64" y="1593" type="line" smooth="no"/>
      <point x="408" y="1593" type="line" smooth="no"/>
    </contour>
  </outline>
</glyph>
<glyph name="bracketright" format="1">
  <advance width="688"/>
  <unicode hex="005d"/>
  <outline>
    <contour>
      <point x="269" y="1312" type="line" smooth="no"/>
      <point x="67" y="1312" type="line" smooth="no"/>
      <point x="67" y="1593" type="line" smooth="no"/>
      <point x="621" y="1593" type="line" smooth="no"/>
      <point x="621" y="0" type="line" smooth="no"/>
      <point x="67" y="0" type="line" smooth="no"/>
      <point x="67" y="281" type="line" smooth="no"/>
      <point x="269" y="281" type="line" smooth="no"/>
    </contour>
  </outline>
</glyph>
<glyph name="asciicircum" format="1">
  <advance width="970"/>
  <unicode hex="005e"/>
  <outline>
    <contour>
      <point x="689" y="1355" type="line" smooth="no"/>
      <point x="930" y="432" type="line" smooth="no"/>
      <point x="571" y="432" type="line" smooth="no"/>
      <point x="485" y="1027" type="line" smooth="no"/>
      <point x="399" y="432" type="line" smooth="no"/>
      <point x="40" y="432" type="line" smooth="no"/>
      <point x="281" y="1355" type="line" smooth="no"/>
    </contour>
  </outline>
</glyph>
<glyph name="underscore" format="1">
  <advance width="650"/>
  <unicode hex="005f"/>
  <outline>
    <contour>
      <point x="0" y="-232" type="line" smooth="no"/>
      <point x="0" y="0" type="line" smooth="no"/>
      <point x="651" y="0" type="line" smooth="no"/>
      <point x="651" y="-232" type="line" smooth="no"/>
    </contour>
  </outline>
</glyph>
<glyph name="grave" format="1">
  <advance width="650"/>
  <unicode hex="0060"/>
  <outline>
    <contour>
      <point x="526" y="1553" type="line" smooth="no"/>
      <point x="51" y="1647" type="line" smooth="no"/>
      <point x="51" y="1994" type="line" smooth="no"/>
      <point x="526" y="1776" type="line" smooth="no"/>
    </contour>
  </outline>
</glyph>
<glyph name="b" format="1">
  <advance width="1008"/>
  <unicode hex="0062"/>
  <outline>
    <contour>
      <point x="435" y="160" type="qcurve" smooth="no"/>
      <point x="435" y="0" type="line" smooth="no"/>
      <point x="67" y="0" type="line" smooth="no"/>
      <point x="67" y="1769" type="line" smooth="no"/>
      <point x="435" y="1769" type="line" smooth="no"/>
      <point x="435" y="1427" type="line" smooth="no"/>
      <point x="525" y="1519"/>
      <point x="635" y="1519" type="qcurve" smooth="yes"/>
      <point x="656" y="1519"/>
      <point x="687" y="1518"/>
      <point x="742" y="1510"/>
      <point x="783" y="1495"/>
      <point x="837" y="1467"/>
      <point x="877" y="1427"/>
      <point x="919" y="1365"/>
      <point x="945" y="1287"/>
      <point x="962" y="1178"/>
      <point x="962" y="1114" type="qcurve" smooth="yes"/>
      <point x="962" y="391" type="line" smooth="yes"/>
      <point x="962" y="312"/>
      <point x="934" y="184"/>
      <point x="891" y="101"/>
      <point x="829" y="38"/>
      <point x="773" y="6"/>
      <point x="707" y="-13"/>
      <point x="666" y="-18"/>
      <point x="646" y="-18" type="qcurve" smooth="yes"/>
      <point x="501" y="-18"/>
    </contour>
    <contour>
      <point x="435" y="1085" type="qcurve" smooth="yes"/>
      <point x="435" y="457" type="line" smooth="yes"/>
      <point x="435" y="344"/>
      <point x="480" y="263"/>
      <point x="525" y="263" type="qcurve" smooth="yes"/>
      <point x="569" y="263"/>
      <point x="599" y="339"/>
      <point x="599" y="457" type="qcurve" smooth="yes"/>
      <point x="599" y="1081" type="line" smooth="yes"/>
      <point x="599" y="1174"/>
      <point x="561" y="1239"/>
      <point x="523" y="1239" type="qcurve" smooth="yes"/>
      <point x="484" y="1239"/>
      <point x="435" y="1175"/>
    </contour>
  </outline>
</glyph>
<glyph name="c" format="1">
  <advance width="1036"/>
  <unicode hex="0063"/>
  <outline>
    <contour>
      <point x="72" y="492" type="qcurve" smooth="yes"/>
      <point x="72" y="954" type="line" smooth="yes"/>
      <point x="72" y="1258"/>
      <point x="282" y="1518"/>
      <point x="530" y="1518" type="qcurve" smooth="yes"/>
      <point x="723" y="1518"/>
      <point x="965" y="1314"/>
      <point x="965" y="1135" type="qcurve" smooth="yes"/>
      <point x="965" y="879" type="line" smooth="no"/>
      <point x="600" y="879" type="line" smooth="no"/>
      <point x="600" y="1116" type="line" smooth="yes"/>
      <point x="600" y="1172"/>
      <point x="567" y="1239"/>
      <point x="520" y="1239" type="qcurve" smooth="yes"/>
      <point x="432" y="1239"/>
      <point x="432" y="1114" type="qcurve" smooth="yes"/>
      <point x="432" y="387" type="line" smooth="yes"/>
      <point x="432" y="341"/>
      <point x="472" y="264"/>
      <point x="518" y="264" type="qcurve" smooth="yes"/>
      <point x="531" y="264"/>
      <point x="556" y="274"/>
      <point x="585" y="298"/>
      <point x="602" y="351"/>
      <point x="602" y="389" type="qcurve" smooth="yes"/>
      <point x="600" y="614" type="line" smooth="no"/>
      <point x="965" y="614" type="line" smooth="no"/>
      <point x="965" y="379" type="line" smooth="yes"/>
      <point x="965" y="194"/>
      <point x="726" y="-18"/>
      <point x="535" y="-18" type="qcurve" smooth="yes"/>
      <point x="447" y="-18"/>
      <point x="305" y="16"/>
      <point x="210" y="71"/>
      <point x="140" y="155"/>
      <point x="101" y="239"/>
      <point x="78" y="348"/>
      <point x="72" y="437"/>
    </contour>
  </outline>
</glyph>
<glyph name="g" format="1">
  <advance width="1036"/>
  <unicode hex="0067"/>
  <outline>
    <contour>
      <point x="485" y="-220" type="qcurve" smooth="yes"/>
      <point x="338" y="-220"/>
      <point x="145" y="-171"/>
      <point x="55" y="-96" type="qcurve" smooth="no"/>
      <point x="176" y="111" type="line" smooth="no"/>
      <point x="307" y="33"/>
      <point x="438" y="33" type="qcurve" smooth="yes"/>
      <point x="520" y="33"/>
      <point x="608" y="137"/>
      <point x="608" y="231" type="qcurve" smooth="yes"/>
      <point x="608" y="314" type="line" smooth="no"/>
      <point x="564" y="160"/>
      <point x="379" y="160" type="qcurve" smooth="yes"/>
      <point x="300" y="160"/>
      <point x="181" y="222"/>
      <point x="113" y="330"/>
      <point x="80" y="464"/>
      <point x="80" y="543" type="qcurve" smooth="yes"/>
      <point x="80" y="1106" type="line" smooth="yes"/>
      <point x="80" y="1223"/>
      <point x="122" y="1386"/>
      <point x="204" y="1478"/>
      <point x="309" y="1518"/>
      <point x="379" y="1518" type="qcurve" smooth="yes"/>
      <point x="415" y="1518"/>
      <point x="479" y="1502"/>
      <point x="545" y="1463"/>
      <point x="596" y="1386"/>
      <point x="608" y="1331" type="qcurve" smooth="no"/>
      <point x="608" y="1500" type="line" smooth="no"/>
      <point x="973" y="1500" type="line" smooth="no"/>
      <point x="973" y="254" type="line" smooth="yes"/>
      <point x="973" y="117"/>
      <point x="910" y="-69"/>
      <point x="781" y="-175"/>
      <point x="608" y="-220"/>
    </contour>
    <contour>
      <point x="520" y="1243" type="qcurve" smooth="yes"/>
      <point x="493" y="1243"/>
      <point x="458" y="1219"/>
      <point x="445" y="1172"/>
      <point x="442" y="1142"/>
      <point x="442" y="1116" type="qcurve" smooth="yes"/>
      <point x="442" y="582" type="line" smooth="yes"/>
      <point x="442" y="554"/>
      <point x="446" y="515"/>
      <point x="460" y="460"/>
      <point x="496" y="430"/>
      <point x="524" y="430" type="qcurve" smooth="yes"/>
      <point x="608" y="430"/>
      <point x="608" y="582" type="qcurve" smooth="yes"/>
      <point x="608" y="1116" type="line" smooth="yes"/>
      <point x="608" y="1159"/>
      <point x="561" y="1243"/>
    </contour>
  </outline>
</glyph>
<glyph name="j" format="1">
  <advance width="565"/>
  <unicode hex="006a"/>
  <outline>
    <contour>
      <point x="129" y="1500" type="line" smooth="no"/>
      <point x="487" y="1500" type="line" smooth="no"/>
      <point x="487" y="166" type="line" smooth="yes"/>
      <point x="487" y="-3"/>
      <point x="352" y="-176"/>
      <point x="205" y="-176" type="qcurve" smooth="yes"/>
      <point x="90" y="-176"/>
      <point x="53" y="-150" type="qcurve" smooth="no"/>
      <point x="53" y="90" type="line" smooth="no"/>
      <point x="69" y="85"/>
      <point x="86" y="85" type="qcurve" smooth="yes"/>
      <point x="111" y="85"/>
      <point x="129" y="120"/>
      <point x="129" y="156" type="qcurve" smooth="yes"/>
    </contour>
    <contour>
      <point x="129" y="1567" type="line" smooth="no"/>
      <point x="129" y="1769" type="line" smooth="no"/>
      <point x="487" y="1769" type="line" smooth="no"/>
      <point x="487" y="1567" type="line" smooth="no"/>
    </contour>
  </outline>
</glyph>
<glyph name="v" format="1">
  <advance width="1010"/>
  <unicode hex="0076"/>
  <outline>
    <contour>
      <point x="707" y="0" type="line" smooth="no"/>
      <point x="293" y="0" type="line" smooth="no"/>
      <point x="52" y="1500" type="line" smooth="no"/>
      <point x="411" y="1500" type="line" smooth="no"/>
      <point x="485" y="741" type="line" smooth="no"/>
      <point x="497" y="498" type="line" smooth="no"/>
      <point x="511" y="743" type="line" smooth="no"/>
      <point x="594" y="1500" type="line" smooth="no"/>
      <point x="952" y="1500" type="line" smooth="no"/>
    </contour>
  </outline>
</glyph>
<glyph name="w" format="1">
  <advance width="1538"/>
  <unicode hex="0077"/>
  <outline>
    <contour>
      <point x="946" y="1500" type="line" smooth="no"/>
      <point x="1030" y="694" type="line" smooth="no"/>
      <point x="1122" y="1500" type="line" smooth="no"/>
      <point x="1479" y="1500" type="line" smooth="no"/>
      <point x="1268" y="0" type="line" smooth="no"/>
      <point x="852" y="0" type="line" smooth="no"/>
      <point x="764" y="801" type="line" smooth="no"/>
      <point x="680" y="0" type="line" smooth="no"/>
      <point x="264" y="0" type="line" smooth="no"/>
      <point x="53" y="1500" type="line" smooth="no"/>
      <point x="410" y="1500" type="line" smooth="no"/>
      <point x="499" y="694" type="line" smooth="no"/>
      <point x="586" y="1500" type="line" smooth="no"/>
    </contour>
  </outline>
</glyph>
<glyph name="braceright" format="1">
  <advance width="721"/>
  <unicode hex="007d"/>
  <outline>
    <contour>
      <point x="558" y="1225" type="qcurve" smooth="yes"/>
      <point x="558" y="1208" type="line" smooth="yes"/>
      <point x="558" y="1118"/>
      <point x="562" y="1054"/>
      <point x="568" y="1028"/>
      <point x="582" y="989"/>
      <point x="601" y="974"/>
      <point x="632" y="952"/>
      <point x="670" y="941"/>
      <point x="697" y="936" type="qcurve" smooth="no"/>
      <point x="697" y="669" type="line" smooth="no"/>
      <point x="676" y="665"/>
      <point x="643" y="656"/>
      <point x="615" y="639"/>
      <point x="596" y="629"/>
      <point x="570" y="586"/>
      <point x="563" y="544"/>
      <point x="560" y="521"/>
      <point x="558" y="462"/>
      <point x="558" y="387" type="line" smooth="yes"/>
      <point x="558" y="370" type="line" smooth="yes"/>
      <point x="558" y="183"/>
      <point x="306" y="-11"/>
      <point x="67" y="-18" type="qcurve" smooth="no"/>
      <point x="67" y="249" type="line" smooth="no"/>
      <point x="108" y="252"/>
      <point x="164" y="267"/>
      <point x="191" y="281"/>
      <point x="205" y="309"/>
      <point x="206" y="323"/>
      <point x="206" y="338" type="qcurve" smooth="yes"/>
      <point x="206" y="430"/>
      <point x="222" y="566"/>
      <point x="244" y="650"/>
      <point x="295" y="726"/>
      <point x="335" y="766"/>
      <point x="376" y="802" type="qcurve" smooth="no"/>
      <point x="334" y="839"/>
      <point x="296" y="879"/>
      <point x="244" y="956"/>
      <point x="222" y="1041"/>
      <point x="206" y="1179"/>
      <point x="206" y="1272" type="qcurve" smooth="yes"/>
      <point x="206" y="1289"/>
      <point x="200" y="1309"/>
      <point x="176" y="1336"/>
      <point x="115" y="1353"/>
      <point x="67" y="1356" type="qcurve" smooth="no"/>
      <point x="67" y="1623" type="line" smooth="no"/>
      <point x="306" y="1616"/>
      <point x="558" y="1416"/>
    </contour>
  </outline>
</glyph>
<glyph name="exclamdown" format="1">
  <advance width="487"/>
  <unicode hex="00a1"/>
  <outline>
    <contour>
      <point x="65" y="1" type="line" smooth="no"/>
      <point x="135" y="1155" type="line" smooth="no"/>
      <point x="353" y="1155" type="line" smooth="no"/>
      <point x="423" y="1" type="line" smooth="no"/>
    </contour>
    <contour>
      <point x="65" y="1593" type="line" smooth="no"/>
      <point x="423" y="1593" type="line" smooth="no"/>
      <point x="423" y="1295" type="line" smooth="no"/>
      <point x="65" y="1295" type="line" smooth="no"/>
    </contour>
  </outline>
</glyph>
<glyph name="copyright" format="1">
  <advance width="1406"/>
  <unicode hex="00a9"/>
  <outline>
    <contour>
      <point x="205" y="719"/>
      <point x="339" y="476"/>
      <point x="568" y="334"/>
      <point x="838" y="334"/>
      <point x="1067" y="476"/>
      <point x="1201" y="719"/>
      <point x="1201" y="1005"/>
      <point x="1067" y="1248"/>
      <point x="838" y="1390"/>
      <point x="568" y="1390"/>
      <point x="339" y="1248"/>
      <point x="205" y="1005"/>
    </contour>
    <contour>
      <point x="46" y="1041"/>
      <point x="222" y="1343"/>
      <point x="524" y="1519"/>
      <point x="882" y="1519"/>
      <point x="1184" y="1343"/>
      <point x="1360" y="1041"/>
      <point x="1360" y="683"/>
      <point x="1184" y="381"/>
      <point x="882" y="205"/>
      <point x="524" y="205"/>
      <point x="222" y="381"/>
      <point x="46" y="683"/>
    </contour>
    <contour>
      <point x="940" y="806" type="line" smooth="no"/>
      <point x="940" y="643" type="line" smooth="yes"/>
      <point x="940" y="424"/>
      <point x="697" y="424" type="qcurve" smooth="yes"/>
      <point x="595" y="424"/>
      <point x="467" y="540"/>
      <point x="467" y="648" type="qcurve" smooth="yes"/>
      <point x="467" y="1049" type="line" smooth="yes"/>
      <point x="467" y="1178"/>
      <point x="580" y="1305"/>
      <point x="701" y="1305" type="qcurve" smooth="yes"/>
      <point x="804" y="1305"/>
      <point x="936" y="1204"/>
      <point x="936" y="1105" type="qcurve" smooth="yes"/>
      <point x="936" y="952" type="line" smooth="no"/>
      <point x="747" y="952" type="line" smooth="no"/>
      <point x="747" y="1053" type="line" smooth="yes"/>
      <point x="747" y="1130"/>
      <point x="701" y="1130" type="qcurve" smooth="yes"/>
      <point x="674" y="1130"/>
      <point x="657" y="1096"/>
      <point x="657" y="1066" type="qcurve" smooth="yes"/>
      <point x="657" y="657" type="line" smooth="yes"/>
      <point x="657" y="631"/>
      <point x="682" y="592"/>
      <point x="701" y="592" type="qcurve" smooth="yes"/>
      <point x="747" y="592"/>
      <point x="747" y="657" type="qcurve" smooth="yes"/>
      <point x="747" y="806" type="line" smooth="no"/>
    </contour>
  </outline>
</glyph>
<glyph name="ordfeminine" format="1">
  <advance width="1018"/>
  <unicode hex="00aa"/>
  <outline>
    <contour>
      <point x="61" y="744" type="qcurve" smooth="yes"/>
      <point x="61" y="902"/>
      <point x="108" y="982" type="qcurve" smooth="yes"/>
      <point x="149" y="1050"/>
      <point x="249" y="1097" type="qcurve" smooth="yes"/>
      <point x="300" y="1121"/>
      <point x="476" y="1181" type="qcurve" smooth="yes"/>
      <point x="476" y="1183" type="line" smooth="yes"/>
      <point x="476" y="1209"/>
      <point x="475" y="1240"/>
      <point x="474" y="1280"/>
      <point x="473" y="1304"/>
      <point x="469" y="1332"/>
      <point x="466" y="1347"/>
      <point x="458" y="1366"/>
      <point x="450" y="1375"/>
      <point x="439" y="1383"/>
      <point x="424" y="1386"/>
      <point x="415" y="1386" type="qcurve" smooth="yes"/>
      <point x="356" y="1386"/>
      <point x="356" y="1321" type="qcurve" smooth="yes"/>
      <point x="356" y="1241" type="line" smooth="no"/>
      <point x="80" y="1241" type="line" smooth="no"/>
      <point x="79" y="1255"/>
      <point x="79" y="1280" type="qcurve" smooth="yes"/>
      <point x="79" y="1450"/>
      <point x="240" y="1607"/>
      <point x="429" y="1607" type="qcurve" smooth="yes"/>
      <point x="436" y="1607" type="line" smooth="yes"/>
      <point x="493" y="1607"/>
      <point x="547" y="1591" type="qcurve" smooth="yes"/>
      <point x="604" y="1574"/>
      <point x="703" y="1506"/>
      <point x="762" y="1387"/>
      <point x="762" y="1310" type="qcurve" smooth="yes"/>
      <point x="762" y="403" type="line" smooth="no"/>
      <point x="480" y="403" type="line" smooth="no"/>
      <point x="480" y="527" type="line" smooth="no"/>
      <point x="466" y="474"/>
      <point x="363" y="389"/>
      <point x="303" y="389" type="qcurve" smooth="yes"/>
      <point x="260" y="389"/>
      <point x="195" y="404"/>
      <point x="130" y="450"/>
      <point x="88" y="527"/>
      <point x="61" y="656"/>
    </contour>
    <contour>
      <point x="351" y="855" type="qcurve" smooth="yes"/>
      <point x="351" y="716" type="line" smooth="yes"/>
      <point x="351" y="611"/>
      <point x="415" y="611" type="qcurve" smooth="yes"/>
      <point x="432" y="611"/>
      <point x="458" y="630"/>
      <point x="470" y="660"/>
      <point x="475" y="689"/>
      <point x="475" y="704" type="qcurve" smooth="yes"/>
      <point x="475" y="1017" type="line" smooth="no"/>
      <point x="402" y="988"/>
      <point x="351" y="909"/>
    </contour>
  </outline>
</glyph>
<glyph name="guillemotleft" format="1">
  <advance width="1194"/>
  <unicode hex="00ab"/>
  <outline>
    <contour>
      <point x="618" y="545" type="line" smooth="no"/>
      <point x="618" y="959" type="line" smooth="no"/>
      <point x="1128" y="1230" type="line" smooth="no"/>
      <point x="1128" y="871" type="line" smooth="no"/>
      <point x="816" y="749" type="line" smooth="no"/>
      <point x="1128" y="618" type="line" smooth="no"/>
      <point x="1128" y="260" type="line" smooth="no"/>
    </contour>
    <contour>
      <point x="40" y="545" type="line" smooth="no"/>
      <point x="40" y="959" type="line" smooth="no"/>
      <point x="550" y="1230" type="line" smooth="no"/>
      <point x="550" y="871" type="line" smooth="no"/>
      <point x="238" y="749" type="line" smooth="no"/>
      <point x="550" y="618" type="line" smooth="no"/>
      <point x="550" y="260" type="line" smooth="no"/>
    </contour>
  </outline>
</glyph>
<glyph name="plusminus" format="1">
  <advance width="700"/>
  <unicode hex="00b1"/>
  <outline>
    <contour>
      <point x="26" y="622" type="line" smooth="no"/>
      <point x="26" y="854" type="line" smooth="no"/>
      <point x="234" y="854" type="line" smooth="no"/>
      <point x="234" y="1062" type="line" smooth="no"/>
      <point x="466" y="1062" type="line" smooth="no"/>
      <point x="466" y="854" type="line" smooth="no"/>
      <point x="674" y="854" type="line" smooth="no"/>
      <point x="674" y="622" type="line" smooth="no"/>
      <point x="466" y="622" type="line" smooth="no"/>
      <point x="466" y="414" type="line" smooth="no"/>
      <point x="234" y="414" type="line" smooth="no"/>
      <point x="234" y="622" type="line" smooth="no"/>
    </contour>
    <contour>
      <point x="67" y="-1" type="line" smooth="no"/>
      <point x="67" y="231" type="line" smooth="no"/>
      <point x="583" y="231" type="line" smooth="no"/>
      <point x="583" y="-1" type="line" smooth="no"/>
    </contour>
  </outline>
</glyph>
<glyph name="uni00B3" format="1">
  <advance width="623"/>
  <unicode hex="00b3"/>
  <outline>
    <contour>
      <point x="300" y="635" type="qcurve" smooth="yes"/>
      <point x="176" y="635"/>
      <point x="51" y="763"/>
      <point x="51" y="904" type="qcurve" smooth="yes"/>
      <point x="51" y="1004" type="line" smooth="no"/>
      <point x="253" y="1004" type="line" smooth="no"/>
      <point x="253" y="903" type="line" smooth="yes"/>
      <point x="253" y="871"/>
      <point x="264" y="831"/>
      <point x="285" y="817"/>
      <point x="299" y="813"/>
      <point x="310" y="813" type="qcurve" smooth="yes"/>
      <point x="338" y="813"/>
      <point x="361" y="861"/>
      <point x="361" y="935" type="qcurve" smooth="yes"/>
      <point x="361" y="954"/>
      <point x="360" y="972"/>
      <point x="357" y="1015"/>
      <point x="346" y="1039"/>
      <point x="328" y="1068"/>
      <point x="298" y="1082"/>
      <point x="277" y="1082" type="qcurve" smooth="yes"/>
      <point x="264" y="1082"/>
      <point x="257" y="1081" type="qcurve" smooth="no"/>
      <point x="257" y="1254" type="line" smooth="no"/>
      <point x="308" y="1254"/>
      <point x="362" y="1296"/>
      <point x="362" y="1349" type="qcurve" smooth="yes"/>
      <point x="362" y="1430"/>
      <point x="314" y="1430" type="qcurve" smooth="yes"/>
      <point x="290" y="1430"/>
      <point x="266" y="1408"/>
      <point x="263" y="1375"/>
      <point x="262" y="1335"/>
      <point x="261" y="1317" type="qcurve" smooth="no"/>
      <point x="57" y="1317" type="line" smooth="no"/>
      <point x="56" y="1351" type="line" smooth="no"/>
      <point x="57" y="1494"/>
      <point x="191" y="1606"/>
      <point x="313" y="1606" type="qcurve" smooth="yes"/>
      <point x="565" y="1606"/>
      <point x="565" y="1351" type="qcurve" smooth="yes"/>
      <point x="565" y="1318"/>
      <point x="558" y="1268"/>
      <point x="540" y="1217"/>
      <point x="502" y="1180"/>
      <point x="473" y="1170" type="qcurve" smooth="no"/>
      <point x="511" y="1153"/>
      <point x="546" y="1115"/>
      <point x="568" y="1022"/>
      <point x="568" y="935" type="qcurve" smooth="yes"/>
      <point x="568" y="789"/>
      <point x="442" y="635"/>
    </contour>
  </outline>
</glyph>
<glyph name="acute" format="1">
  <advance width="650"/>
  <unicode hex="00b4"/>
  <outline>
    <contour>
      <point x="41" y="1553" type="line" smooth="no"/>
      <point x="41" y="1776" type="line" smooth="no"/>
      <point x="516" y="1994" type="line" smooth="no"/>
      <point x="516" y="1647" type="line" smooth="no"/>
    </contour>
  </outline>
</glyph>
<glyph name="paragraph" format="1">
  <advance width="981"/>
  <unicode hex="00b6"/>
  <outline>
    <contour>
      <point x="357" y="0" type="line" smooth="no"/>
      <point x="357" y="797" type="line" smooth="no"/>
      <point x="256" y="808"/>
      <point x="118" y="876"/>
      <point x="42" y="987"/>
      <point x="10" y="1120"/>
      <point x="10" y="1210" type="qcurve" smooth="yes"/>
      <point x="10" y="1296"/>
      <point x="62" y="1427"/>
      <point x="155" y="1514"/>
      <point x="294" y="1569"/>
      <point x="458" y="1593"/>
      <point x="561" y="1593" type="qcurve" smooth="yes"/>
      <point x="936" y="1593" type="line" smooth="no"/>
      <point x="936" y="0" type="line" smooth="no"/>
      <point x="697" y="0" type="line" smooth="no"/>
      <point x="697" y="1287" type="line" smooth="no"/>
      <point x="603" y="1287" type="line" smooth="no"/>
      <point x="603" y="0" type="line" smooth="no"/>
    </contour>
  </outline>
</glyph>
<glyph name="cedilla" format="1">
  <advance width="1015"/>
  <unicode hex="00b8"/>
  <outline>
    <contour>
      <point x="306" y="-591" type="qcurve" smooth="no"/>
      <point x="306" y="-368" type="line" smooth="no"/>
      <point x="372" y="-391"/>
      <point x="422" y="-391" type="qcurve" smooth="yes"/>
      <point x="475" y="-391"/>
      <point x="537" y="-337"/>
      <point x="537" y="-279" type="qcurve" smooth="yes"/>
      <point x="537" y="-223"/>
      <point x="452" y="-122"/>
      <point x="377" y="-106" type="qcurve" smooth="no"/>
      <point x="377" y="0" type="line" smooth="no"/>
      <point x="588" y="0" type="line" smooth="no"/>
      <point x="588" y="-76" type="line" smooth="no"/>
      <point x="715" y="-93"/>
      <point x="852" y="-237"/>
      <point x="852" y="-330" type="qcurve" smooth="yes"/>
      <point x="852" y="-469"/>
      <point x="651" y="-631"/>
      <point x="504" y="-631" type="qcurve" smooth="yes"/>
      <point x="402" y="-631"/>
    </contour>
  </outline>
</glyph>
<glyph name="guillemotright" format="1">
  <advance width="1194"/>
  <unicode hex="00bb"/>
  <outline>
    <contour>
      <point x="577" y="545" type="line" smooth="no"/>
      <point x="67" y="260" type="line" smooth="no"/>
      <point x="67" y="618" type="line" smooth="no"/>
      <point x="379" y="749" type="line" smooth="no"/>
      <point x="67" y="871" type="line" smooth="no"/>
      <point x="67" y="1230" type="line" smooth="no"/>
      <point x="577" y="959" type="line" smooth="no"/>
    </contour>
    <contour>
      <point x="1154" y="545" type="line" smooth="no"/>
      <point x="644" y="260" type="line" smooth="no"/>
      <point x="644" y="618" type="line" smooth="no"/>
      <point x="956" y="749" type="line" smooth="no"/>
      <point x="644" y="871" type="line" smooth="no"/>
      <point x="644" y="1230" type="line" smooth="no"/>
      <point x="1154" y="959" type="line" smooth="no"/>
    </contour>
  </outline>
</glyph>
<glyph name="onequarter" format="1">
  <advance width="2641"/>
  <unicode hex="00bc"/>
  <outline>
    <contour>
      <point x="190" y="1607" type="qcurve" smooth="no"/>
      <point x="349" y="1607" type="line" smooth="no"/>
      <point x="349" y="656" type="line" smooth="no"/>
      <point x="139" y="656" type="line" smooth="no"/>
      <point x="139" y="1364" type="line" smooth="no"/>
      <point x="80" y="1334"/>
      <point x="16" y="1334" type="qcurve" smooth="no"/>
      <point x="18" y="1398"/>
      <point x="18" y="1444" type="qcurve" smooth="yes"/>
      <point x="18" y="1481"/>
      <point x="16" y="1487" type="qcurve" smooth="no"/>
      <point x="58" y="1487"/>
      <point x="190" y="1558"/>
    </contour>
    <contour>
      <point x="590" y="0" type="line" smooth="no"/>
      <point x="307" y="0" type="line" smooth="no"/>
      <point x="797" y="1767" type="line" smooth="no"/>
      <point x="1081" y="1767" type="line" smooth="no"/>
    </contour>
    <contour>
      <point x="1353" y="322" type="line" smooth="no"/>
      <point x="1353" y="151" type="line" smooth="no"/>
      <point x="1314" y="151" type="line" smooth="no"/>
      <point x="1314" y="-1" type="line" smooth="no"/>
      <point x="1107" y="-1" type="line" smooth="no"/>
      <point x="1107" y="151" type="line" smooth="no"/>
      <point x="804" y="151" type="line" smooth="no"/>
      <point x="804" y="300" type="line" smooth="no"/>
      <point x="991" y="941" type="line" smooth="no"/>
      <point x="1314" y="941" type="line" smooth="no"/>
      <point x="1314" y="322" type="line" smooth="no"/>
    </contour>
    <contour>
      <point x="997" y="322" type="line" smooth="no"/>
      <point x="1107" y="322" type="line" smooth="no"/>
      <point x="1107" y="727" type="line" smooth="no"/>
    </contour>
  </outline>
</glyph>
<glyph name="onehalf" format="1">
  <advance width="2592"/>
  <unicode hex="00bd"/>
  <outline>
    <contour>
      <point x="190" y="1607" type="qcurve" smooth="no"/>
      <point x="349" y="1607" type="line" smooth="no"/>
      <point x="349" y="656" type="line" smooth="no"/>
      <point x="139" y="656" type="line" smooth="no"/>
      <point x="139" y="1364" type="line" smooth="no"/>
      <point x="80" y="1334"/>
      <point x="16" y="1334" type="qcurve" smooth="no"/>
      <point x="18" y="1398"/>
      <point x="18" y="1444" type="qcurve" smooth="yes"/>
      <point x="18" y="1481"/>
      <point x="16" y="1487" type="qcurve" smooth="no"/>
      <point x="58" y="1487"/>
      <point x="190" y="1558"/>
    </contour>
    <contour>
      <point x="648" y="0" type="line" smooth="no"/>
      <point x="365" y="0" type="line" smooth="no"/>
      <point x="855" y="1767" type="line" smooth="no"/>
      <point x="1139" y="1767" type="line" smooth="no"/>
    </contour>
    <contour>
      <point x="994" y="-1" type="line" smooth="no"/>
      <point x="994" y="46" type="line" smooth="yes"/>
      <point x="994" y="191"/>
      <point x="1098" y="344" type="qcurve" smooth="yes"/>
      <point x="1136" y="400"/>
      <point x="1257" y="546" type="qcurve" smooth="yes"/>
      <point x="1308" y="606"/>
      <point x="1308" y="709" type="qcurve" smooth="yes"/>
      <point x="1308" y="792"/>
      <point x="1255" y="792" type="qcurve" smooth="yes"/>
      <point x="1204" y="792"/>
      <point x="1204" y="705" type="qcurve" smooth="yes"/>
      <point x="1204" y="586" type="line" smooth="no"/>
      <point x="994" y="586" type="line" smooth="no"/>
      <point x="992" y="646" type="line" smooth="no"/>
      <point x="992" y="818"/>
      <point x="1107" y="974"/>
      <point x="1257" y="974" type="qcurve" smooth="yes"/>
      <point x="1379" y="974"/>
      <point x="1520" y="840"/>
      <point x="1520" y="712" type="qcurve" smooth="yes"/>
      <point x="1520" y="641"/>
      <point x="1480" y="515"/>
      <point x="1412" y="414"/>
      <point x="1263" y="226"/>
      <point x="1240" y="182" type="qcurve" smooth="no"/>
      <point x="1513" y="182" type="line" smooth="no"/>
      <point x="1513" y="-1" type="line" smooth="no"/>
    </contour>
  </outline>
</glyph>
<glyph name="threequarters" format="1">
  <advance width="2991"/>
  <unicode hex="00be"/>
  <outline>
    <contour>
      <point x="300" y="635" type="qcurve" smooth="yes"/>
      <point x="176" y="635"/>
      <point x="51" y="763"/>
      <point x="51" y="904" type="qcurve" smooth="yes"/>
      <point x="51" y="1004" type="line" smooth="no"/>
      <point x="253" y="1004" type="line" smooth="no"/>
      <point x="253" y="903" type="line" smooth="yes"/>
      <point x="253" y="871"/>
      <point x="264" y="831"/>
      <point x="285" y="817"/>
      <point x="299" y="813"/>
      <point x="310" y="813" type="qcurve" smooth="yes"/>
      <point x="338" y="813"/>
      <point x="361" y="861"/>
      <point x="361" y="935" type="qcurve" smooth="yes"/>
      <point x="361" y="954"/>
      <point x="360" y="972"/>
      <point x="357" y="1015"/>
      <point x="346" y="1039"/>
      <point x="328" y="1068"/>
      <point x="298" y="1082"/>
      <point x="277" y="1082" type="qcurve" smooth="yes"/>
      <point x="264" y="1082"/>
      <point x="257" y="1081" type="qcurve" smooth="no"/>
      <point x="257" y="1254" type="line" smooth="no"/>
      <point x="308" y="1254"/>
      <point x="362" y="1296"/>
      <point x="362" y="1349" type="qcurve" smooth="yes"/>
      <point x="362" y="1430"/>
      <point x="314" y="1430" type="qcurve" smooth="yes"/>
      <point x="290" y="1430"/>
      <point x="266" y="1408"/>
      <point x="263" y="1375"/>
      <point x="262" y="1335"/>
      <point x="261" y="1317" type="qcurve" smooth="no"/>
      <point x="57" y="1317" type="line" smooth="no"/>
      <point x="56" y="1351" type="line" smooth="no"/>
      <point x="57" y="1494"/>
      <point x="191" y="1606"/>
      <point x="313" y="1606" type="qcurve" smooth="yes"/>
      <point x="565" y="1606"/>
      <point x="565" y="1351" type="qcurve" smooth="yes"/>
      <point x="565" y="1318"/>
      <point x="558" y="1268"/>
      <point x="540" y="1217"/>
      <point x="502" y="1180"/>
      <point x="473" y="1170" type="qcurve" smooth="no"/>
      <point x="511" y="1153"/>
      <point x="546" y="1115"/>
      <point x="568" y="1022"/>
      <point x="568" y="935" type="qcurve" smooth="yes"/>
      <point x="568" y="789"/>
      <point x="442" y="635"/>
    </contour>
    <contour>
      <point x="761" y="0" type="line" smooth="no"/>
      <point x="478" y="0" type="line" smooth="no"/>
      <point x="968" y="1767" type="line" smooth="no"/>
      <point x="1252" y="1767" type="line" smooth="no"/>
    </contour>
    <contour>
      <point x="1496" y="324" type="line" smooth="no"/>
      <point x="1496" y="153" type="line" smooth="no"/>
      <point x="1457" y="153" type="line" smooth="no"/>
      <point x="1457" y="1" type="line" smooth="no"/>
      <point x="1250" y="1" type="line" smooth="no"/>
      <point x="1250" y="153" type="line" smooth="no"/>
      <point x="947" y="153" type="line" smooth="no"/>
      <point x="947" y="302" type="line" smooth="no"/>
      <point x="1134" y="943" type="line" smooth="no"/>
      <point x="1457" y="943" type="line" smooth="no"/>
      <point x="1457" y="324" type="line" smooth="no"/>
    </contour>
    <contour>
      <point x="1140" y="324" type="line" smooth="no"/>
      <point x="1250" y="324" type="line" smooth="no"/>
      <point x="1250" y="729" type="line" smooth="no"/>
    </contour>
  </outline>
</glyph>
<glyph name="Atilde" format="1">
  <advance width="1051"/>
  <unicode hex="00c3"/>
  <outline>
    <contour>
      <point x="801" y="1593" type="line" smooth="no"/>
      <point x="977" y="0" type="line" smooth="no"/>
      <point x="637" y="0" type="line" smooth="no"/>
      <point x="612" y="240" type="line" smooth="no"/>
      <point x="434" y="240" type="line" smooth="no"/>
      <point x="412" y="0" type="line" smooth="no"/>
      <point x="70" y="0" type="line" smooth="no"/>
      <point x="250" y="1593" type="line" smooth="no"/>
    </contour>
    <contour>
      <point x="538" y="1294" type="line" smooth="no"/>
      <point x="506" y="1294" type="line" smooth="no"/>
      <point x="459" y="530" type="line" smooth="no"/>
      <point x="585" y="530" type="line" smooth="no"/>
    </contour>
    <contour>
      <point x="388" y="1804" type="qcurve" smooth="yes"/>
      <point x="356" y="1804"/>
      <point x="330" y="1715" type="qcurve" smooth="no"/>
      <point x="108" y="1821" type="line" smooth="no"/>
      <point x="161" y="1951"/>
      <point x="296" y="2080"/>
      <point x="388" y="2080" type="qcurve" smooth="yes"/>
      <point x="426" y="2080"/>
      <point x="598" y="1972"/>
      <point x="664" y="1972"/>
      <point x="690" y="2051" type="qcurve" smooth="no"/>
      <point x="922" y="1995" type="line" smooth="no"/>
      <point x="867" y="1845"/>
      <point x="725" y="1694"/>
      <point x="630" y="1694" type="qcurve" smooth="yes"/>
      <point x="595" y="1694"/>
      <point x="523" y="1728"/>
      <point x="474" y="1770"/>
      <point x="413" y="1804"/>
    </contour>
  </outline>
</glyph>
<glyph name="Adieresis" format="1">
  <advance width="1051"/>
  <unicode hex="00c4"/>
  <outline>
    <contour>
      <point x="801" y="1593" type="line" smooth="no"/>
      <point x="977" y="0" type="line" smooth="no"/>
      <point x="637" y="0" type="line" smooth="no"/>
      <point x="612" y="240" type="line" smooth="no"/>
      <point x="434" y="240" type="line" smooth="no"/>
      <point x="412" y="0" type="line" smooth="no"/>
      <point x="70" y="0" type="line" smooth="no"/>
      <point x="250" y="1593" type="line" smooth="no"/>
    </contour>
    <contour>
      <point x="538" y="1294" type="line" smooth="no"/>
      <point x="506" y="1294" type="line" smooth="no"/>
      <point x="459" y="530" type="line" smooth="no"/>
      <point x="585" y="530" type="line" smooth="no"/>
    </contour>
    <contour>
      <point x="104" y="1683" type="line" smooth="no"/>
      <point x="104" y="1981" type="line" smooth="no"/>
      <point x="462" y="1981" type="line" smooth="no"/>
      <point x="462" y="1683" type="line" smooth="no"/>
    </contour>
    <contour>
      <point x="588" y="1683" type="line" smooth="no"/>
      <point x="588" y="1981" type="line" smooth="no"/>
      <point x="946" y="1981" type="line" smooth="no"/>
      <point x="946" y="1683" type="line" smooth="no"/>
    </contour>
  </outline>
</glyph>
<glyph name="Aring" format="1">
  <advance width="1051"/>
  <unicode hex="00c5"/>
  <outline>
    <contour>
      <point x="801" y="1593" type="line" smooth="no"/>
      <point x="977" y="0" type="line" smooth="no"/>
      <point x="637" y="0" type="line" smooth="no"/>
      <point x="612" y="240" type="line" smooth="no"/>
      <point x="434" y="240" type="line" smooth="no"/>
      <point x="412" y="0" type="line" smooth="no"/>
      <point x="70" y="0" type="line" smooth="no"/>
      <point x="250" y="1593" type="line" smooth="no"/>
    </contour>
    <contour>
      <point x="538" y="1294" type="line" smooth="no"/>
      <point x="506" y="1294" type="line" smooth="no"/>
      <point x="459" y="530" type="line" smooth="no"/>
      <point x="585" y="530" type="line" smooth="no"/>
    </contour>
    <contour>
      <point x="384" y="2056"/>
      <point x="457" y="2150"/>
      <point x="595" y="2150"/>
      <point x="668" y="2056"/>
      <point x="668" y="1930"/>
      <point x="595" y="1836"/>
      <point x="457" y="1836"/>
      <point x="384" y="1930"/>
    </contour>
    <contour>
      <point x="172" y="1837"/>
      <point x="361" y="1655"/>
      <point x="689" y="1655"/>
      <point x="879" y="1837"/>
      <point x="879" y="2149"/>
      <point x="689" y="2331"/>
      <point x="361" y="2331"/>
      <point x="172" y="2149"/>
    </contour>
  </outline>
</glyph>
<glyph name="AE" format="1">
  <advance width="1361"/>
  <unicode hex="00c6"/>
  <outline>
    <contour>
      <point x="629" y="0" type="line" smooth="no"/>
      <point x="628" y="120" type="line" smooth="no"/>
      <point x="628" y="240" type="line" smooth="no"/>
      <point x="420" y="240" type="line" smooth="no"/>
      <point x="381" y="0" type="line" smooth="no"/>
      <point x="40" y="0" type="line" smooth="no"/>
      <point x="361" y="1593" type="line" smooth="no"/>
      <point x="1273" y="1593" type="line" smooth="no"/>
      <point x="1273" y="1284" type="line" smooth="no"/>
      <point x="987" y="1284" type="line" smooth="no"/>
      <point x="987" y="973" type="line" smooth="no"/>
      <point x="1259" y="973" type="line" smooth="no"/>
      <point x="1259" y="674" type="line" smooth="no"/>
      <point x="987" y="674" type="line" smooth="no"/>
      <point x="987" y="311" type="line" smooth="no"/>
      <point x="1296" y="311" type="line" smooth="no"/>
      <point x="1296" y="0" type="line" smooth="no"/>
    </contour>
    <contour>
      <point x="624" y="1294" type="line" smooth="no"/>
      <point x="596" y="1294" type="line" smooth="no"/>
      <point x="466" y="530" type="line" smooth="no"/>
      <point x="624" y="530" type="line" smooth="no"/>
    </contour>
  </outline>
</glyph>
<glyph name="Ccedilla" format="1">
  <advance width="1016"/>
  <unicode hex="00c7"/>
  <outline>
    <contour>
      <point x="944" y="686" type="line" smooth="no"/>
      <point x="588" y="686" type="line" smooth="no"/>
      <point x="588" y="412" type="line" smooth="yes"/>
      <point x="588" y="344"/>
      <point x="538" y="291"/>
      <point x="504" y="291" type="qcurve" smooth="yes"/>
      <point x="467" y="291"/>
      <point x="422" y="363"/>
      <point x="422" y="412" type="qcurve" smooth="yes"/>
      <point x="422" y="1165" type="line" smooth="yes"/>
      <point x="422" y="1221"/>
      <point x="454" y="1284"/>
      <point x="504" y="1284" type="qcurve" smooth="yes"/>
      <point x="588" y="1284"/>
      <point x="588" y="1141" type="qcurve" smooth="yes"/>
      <point x="588" y="956" type="line" smooth="no"/>
      <point x="936" y="956" type="line" smooth="no"/>
      <point x="936" y="1237" type="line" smooth="yes"/>
      <point x="936" y="1330"/>
      <point x="868" y="1473"/>
      <point x="749" y="1561"/>
      <point x="595" y="1606"/>
      <point x="504" y="1606" type="qcurve" smooth="yes"/>
      <point x="281" y="1606"/>
      <point x="72" y="1371"/>
      <point x="72" y="1134" type="qcurve" smooth="yes"/>
      <point x="72" y="395" type="line" smooth="yes"/>
      <point x="72" y="197"/>
      <point x="308" y="-18"/>
      <point x="496" y="-18" type="qcurve" smooth="yes"/>
      <point x="708" y="-18"/>
      <point x="944" y="177"/>
      <point x="944" y="385" type="qcurve" smooth="yes"/>
    </contour>
    <contour>
      <point x="235" y="-591" type="qcurve" smooth="no"/>
      <point x="235" y="-368" type="line" smooth="no"/>
      <point x="301" y="-391"/>
      <point x="351" y="-391" type="qcurve" smooth="yes"/>
      <point x="404" y="-391"/>
      <point x="466" y="-337"/>
      <point x="466" y="-279" type="qcurve" smooth="yes"/>
      <point x="466" y="-223"/>
      <point x="381" y="-122"/>
      <point x="306" y="-106" type="qcurve" smooth="no"/>
      <point x="306" y="0" type="line" smooth="no"/>
      <point x="517" y="0" type="line" smooth="no"/>
      <point x="517" y="-76" type="line" smooth="no"/>
      <point x="644" y="-93"/>
      <point x="781" y="-237"/>
      <point x="781" y="-330" type="qcurve" smooth="yes"/>
      <point x="781" y="-469"/>
      <point x="580" y="-631"/>
      <point x="433" y="-631" type="qcurve" smooth="yes"/>
      <point x="331" y="-631"/>
    </contour>
  </outline>
</glyph>
<glyph name="Ecircumflex" format="1">
  <advance width="872"/>
  <unicode hex="00ca"/>
  <outline>
    <contour>
      <point x="72" y="0" type="line" smooth="no"/>
      <point x="72" y="1593" type="line" smooth="no"/>
      <point x="776" y="1593" type="line" smooth="no"/>
      <point x="776" y="1284" type="line" smooth="no"/>
      <point x="430" y="1284" type="line" smooth="no"/>
      <point x="430" y="973" type="line" smooth="no"/>
      <point x="762" y="973" type="line" smooth="no"/>
      <point x="762" y="674" type="line" smooth="no"/>
      <point x="430" y="674" type="line" smooth="no"/>
      <point x="430" y="311" type="line" smooth="no"/>
      <point x="799" y="311" type="line" smooth="no"/>
      <point x="799" y="0" type="line" smooth="no"/>
    </contour>
    <contour>
      <point x="640" y="2086" type="line" smooth="no"/>
      <point x="881" y="1683" type="line" smooth="no"/>
      <point x="522" y="1683" type="line" smooth="no"/>
      <point x="436" y="1968" type="line" smooth="no"/>
      <point x="350" y="1683" type="line" smooth="no"/>
      <point x="-9" y="1683" type="line" smooth="no"/>
      <point x="232" y="2086" type="line" smooth="no"/>
    </contour>
  </outline>
</glyph>
<glyph name="Edieresis" format="1">
  <advance width="872"/>
  <unicode hex="00cb"/>
  <outline>
    <contour>
      <point x="72" y="0" type="line" smooth="no"/>
      <point x="72" y="1593" type="line" smooth="no"/>
      <point x="776" y="1593" type="line" smooth="no"/>
      <point x="776" y="1284" type="line" smooth="no"/>
      <point x="430" y="1284" type="line" smooth="no"/>
      <point x="430" y="973" type="line" smooth="no"/>
      <point x="762" y="973" type="line" smooth="no"/>
      <point x="762" y="674" type="line" smooth="no"/>
      <point x="430" y="674" type="line" smooth="no"/>
      <point x="430" y="311" type="line" smooth="no"/>
      <point x="799" y="311" type="line" smooth="no"/>
      <point x="799" y="0" type="line" smooth="no"/>
    </contour>
    <contour>
      <point x="15" y="1683" type="line" smooth="no"/>
      <point x="15" y="1981" type="line" smooth="no"/>
      <point x="373" y="1981" type="line" smooth="no"/>
      <point x="373" y="1683" type="line" smooth="no"/>
    </contour>
    <contour>
      <point x="499" y="1683" type="line" smooth="no"/>
      <point x="499" y="1981" type="line" smooth="no"/>
      <point x="857" y="1981" type="line" smooth="no"/>
      <point x="857" y="1683" type="line" smooth="no"/>
    </contour>
  </outline>
</glyph>
<glyph name="Iacute" format="1">
  <advance width="498"/>
  <unicode hex="00cd"/>
  <outline>
    <contour>
      <point x="76" y="0" type="line" smooth="no"/>
      <point x="76" y="1593" type="line" smooth="no"/>
      <point x="416" y="1593" type="line" smooth="no"/>
      <point x="416" y="0" type="line" smooth="no"/>
    </contour>
    <contour>
      <point x="-15" y="1645" type="line" smooth="no"/>
      <point x="-15" y="1868" type="line" smooth="no"/>
      <point x="460" y="2086" type="line" smooth="no"/>
      <point x="460" y="1739" type="line" smooth="no"/>
    </contour>
  </outline>
</glyph>
<glyph name="Ntilde" format="1">
  <advance width="1020"/>
  <unicode hex="00d1"/>
  <outline>
    <contour>
      <point x="940" y="1593" type="line" smooth="no"/>
      <point x="940" y="0" type="line" smooth="no"/>
      <point x="596" y="0" type="line" smooth="no"/>
      <point x="420" y="797" type="line" smooth="no"/>
      <point x="420" y="0" type="line" smooth="no"/>
      <point x="76" y="0" type="line" smooth="no"/>
      <point x="76" y="1593" type="line" smooth="no"/>
      <point x="438" y="1593" type="line" smooth="no"/>
      <point x="600" y="831" type="line" smooth="no"/>
      <point x="600" y="1593" type="line" smooth="no"/>
    </contour>
    <contour>
      <point x="373" y="1804" type="qcurve" smooth="yes"/>
      <point x="341" y="1804"/>
      <point x="315" y="1715" type="qcurve" smooth="no"/>
      <point x="93" y="1821" type="line" smooth="no"/>
      <point x="146" y="1951"/>
      <point x="281" y="2080"/>
      <point x="373" y="2080" type="qcurve" smooth="yes"/>
      <point x="411" y="2080"/>
      <point x="583" y="1972"/>
      <point x="649" y="1972"/>
      <point x="675" y="2051" type="qcurve" smooth="no"/>
      <point x="907" y="1995" type="line" smooth="no"/>
      <point x="852" y="1845"/>
      <point x="710" y="1694"/>
      <point x="615" y="1694" type="qcurve" smooth="yes"/>
      <point x="580" y="1694"/>
      <point x="508" y="1728"/>
      <point x="459" y="1770"/>
      <point x="398" y="1804"/>
    </contour>
  </outline>
</glyph>
<glyph name="multiply" format="1">
  <advance width="700"/>
  <unicode hex="00d7"/>
  <outline>
    <contour>
      <point x="203" y="314" type="line" smooth="no"/>
      <point x="39" y="478" type="line" smooth="no"/>
      <point x="186" y="625" type="line" smooth="no"/>
      <point x="39" y="772" type="line" smooth="no"/>
      <point x="203" y="936" type="line" smooth="no"/>
      <point x="350" y="789" type="line" smooth="no"/>
      <point x="497" y="936" type="line" smooth="no"/>
      <point x="661" y="772" type="line" smooth="no"/>
      <point x="514" y="625" type="line" smooth="no"/>
      <point x="661" y="478" type="line" smooth="no"/>
      <point x="497" y="314" type="line" smooth="no"/>
      <point x="350" y="461" type="line" smooth="no"/>
    </contour>
  </outline>
</glyph>
<glyph name="Udieresis" format="1">
  <advance width="1014"/>
  <unicode hex="00dc"/>
  <outline>
    <contour>
      <point x="283" y="-18"/>
      <point x="76" y="206"/>
      <point x="76" y="422" type="qcurve" smooth="yes"/>
      <point x="76" y="1593" type="line" smooth="no"/>
      <point x="418" y="1593" type="line" smooth="no"/>
      <point x="418" y="453" type="line" smooth="yes"/>
      <point x="418" y="446" type="line" smooth="yes"/>
      <point x="418" y="420"/>
      <point x="419" y="390"/>
      <point x="428" y="338"/>
      <point x="445" y="308"/>
      <point x="479" y="285"/>
      <point x="504" y="285" type="qcurve" smooth="yes"/>
      <point x="525" y="285"/>
      <point x="556" y="299"/>
      <point x="574" y="328"/>
      <point x="585" y="355"/>
      <point x="589" y="400"/>
      <point x="590" y="424"/>
      <point x="590" y="446" type="qcurve" smooth="yes"/>
      <point x="590" y="453" type="line" smooth="yes"/>
      <point x="590" y="1593" type="line" smooth="no"/>
      <point x="932" y="1593" type="line" smooth="no"/>
      <point x="932" y="422" type="line" smooth="yes"/>
      <point x="932" y="206"/>
      <point x="725" y="-18"/>
    </contour>
    <contour>
      <point x="86" y="1683" type="line" smooth="no"/>
      <point x="86" y="1981" type="line" smooth="no"/>
      <point x="444" y="1981" type="line" smooth="no"/>
      <point x="444" y="1683" type="line" smooth="no"/>
    </contour>
    <contour>
      <point x="570" y="1683" type="line" smooth="no"/>
      <point x="570" y="1981" type="line" smooth="no"/>
      <point x="928" y="1981" type="line" smooth="no"/>
      <point x="928" y="1683" type="line" smooth="no"/>
    </contour>
  </outline>
</glyph>
<glyph name="germandbls" format="1">
  <advance width="1026"/>
  <unicode hex="00df"/>
  <outline>
    <contour>
      <point x="489" y="1593" type="qcurve" smooth="yes"/>
      <point x="583" y="1593"/>
      <point x="732" y="1555"/>
      <point x="851" y="1473"/>
      <point x="915" y="1329"/>
      <point x="915" y="1229" type="qcurve" smooth="yes"/>
      <point x="915" y="1214" type="line" smooth="yes"/>
      <point x="915" y="1145"/>
      <point x="909" y="1073"/>
      <point x="898" y="1030"/>
      <point x="876" y="970"/>
      <point x="845" y="932"/>
      <point x="796" y="897"/>
      <point x="765" y="887" type="qcurve" smooth="no"/>
      <point x="807" y="877"/>
      <point x="873" y="834"/>
      <point x="916" y="783"/>
      <point x="948" y="712"/>
      <point x="964" y="650"/>
      <point x="973" y="568"/>
      <point x="975" y="513"/>
      <point x="975" y="476" type="qcurve" smooth="yes"/>
      <point x="975" y="359"/>
      <point x="940" y="193"/>
      <point x="854" y="64"/>
      <point x="701" y="0"/>
      <point x="588" y="0" type="qcurve" smooth="yes"/>
      <point x="484" y="0" type="line" smooth="no"/>
      <point x="484" y="281" type="line" smooth="no"/>
      <point x="627" y="281"/>
      <point x="627" y="399" type="qcurve" smooth="yes"/>
      <point x="627" y="598" type="line" smooth="yes"/>
      <point x="627" y="677"/>
      <point x="563" y="745"/>
      <point x="480" y="745" type="qcurve" smooth="no"/>
      <point x="480" y="993" type="line" smooth="no"/>
      <point x="509" y="993"/>
      <point x="546" y="1015"/>
      <point x="560" y="1057"/>
      <point x="564" y="1088"/>
      <point x="564" y="1112" type="qcurve" smooth="yes"/>
      <point x="564" y="1270" type="line" smooth="yes"/>
      <point x="564" y="1346"/>
      <point x="414" y="1346"/>
      <point x="414" y="1270" type="qcurve" smooth="yes"/>
      <point x="414" y="0" type="line" smooth="no"/>
      <point x="64" y="0" type="line" smooth="no"/>
      <point x="64" y="1229" type="line" smooth="yes"/>
      <point x="64" y="1593"/>
    </contour>
  </outline>
</glyph>
<glyph name="acircumflex" format="1">
  <advance width="1018"/>
  <unicode hex="00e2"/>
  <outline>
    <contour>
      <point x="61" y="430" type="qcurve" smooth="yes"/>
      <point x="61" y="629"/>
      <point x="120" y="729" type="qcurve" smooth="yes"/>
      <point x="171" y="815"/>
      <point x="297" y="874" type="qcurve" smooth="yes"/>
      <point x="361" y="904"/>
      <point x="583" y="980" type="qcurve" smooth="yes"/>
      <point x="583" y="983" type="line" smooth="yes"/>
      <point x="583" y="1015"/>
      <point x="582" y="1055"/>
      <point x="581" y="1105"/>
      <point x="579" y="1135"/>
      <point x="575" y="1171"/>
      <point x="570" y="1190"/>
      <point x="561" y="1213"/>
      <point x="550" y="1225"/>
      <point x="536" y="1235"/>
      <point x="517" y="1239"/>
      <point x="506" y="1239" type="qcurve" smooth="yes"/>
      <point x="432" y="1239"/>
      <point x="432" y="1157" type="qcurve" smooth="yes"/>
      <point x="432" y="1056" type="line" smooth="no"/>
      <point x="84" y="1056" type="line" smooth="no"/>
      <point x="83" y="1073"/>
      <point x="83" y="1105" type="qcurve" smooth="yes"/>
      <point x="83" y="1319"/>
      <point x="286" y="1518"/>
      <point x="524" y="1518" type="qcurve" smooth="yes"/>
      <point x="601" y="1518"/>
      <point x="745" y="1475"/>
      <point x="869" y="1390"/>
      <point x="944" y="1240"/>
      <point x="944" y="1143" type="qcurve" smooth="yes"/>
      <point x="944" y="0" type="line" smooth="no"/>
      <point x="588" y="0" type="line" smooth="no"/>
      <point x="588" y="156" type="line" smooth="no"/>
      <point x="570" y="90"/>
      <point x="440" y="-18"/>
      <point x="365" y="-18" type="qcurve" smooth="yes"/>
      <point x="311" y="-18"/>
      <point x="229" y="1"/>
      <point x="147" y="59"/>
      <point x="94" y="156"/>
      <point x="61" y="319"/>
    </contour>
    <contour>
      <point x="426" y="570" type="qcurve" smooth="yes"/>
      <point x="426" y="395" type="line" smooth="yes"/>
      <point x="426" y="262"/>
      <point x="506" y="262" type="qcurve" smooth="yes"/>
      <point x="528" y="262"/>
      <point x="560" y="286"/>
      <point x="576" y="324"/>
      <point x="582" y="360"/>
      <point x="582" y="379" type="qcurve" smooth="yes"/>
      <point x="582" y="774" type="line" smooth="no"/>
      <point x="490" y="737"/>
      <point x="426" y="638"/>
    </contour>
    <contour>
      <point x="713" y="1994" type="line" smooth="no"/>
      <point x="954" y="1591" type="line" smooth="no"/>
      <point x="595" y="1591" type="line" smooth="no"/>
      <point x="509" y="1876" type="line" smooth="no"/>
      <point x="423" y="1591" type="line" smooth="no"/>
      <point x="64" y="1591" type="line" smooth="no"/>
      <point x="305" y="1994" type="line" smooth="no"/>
    </contour>
  </outline>
</glyph>
<glyph name="atilde" format="1">
  <advance width="1018"/>
  <unicode hex="00e3"/>
  <outline>
    <contour>
      <point x="61" y="430" type="qcurve" smooth="yes"/>
      <point x="61" y="629"/>
      <point x="120" y="729" type="qcurve" smooth="yes"/>
      <point x="171" y="815"/>
      <point x="297" y="874" type="qcurve" smooth="yes"/>
      <point x="361" y="904"/>
      <point x="583" y="980" type="qcurve" smooth="yes"/>
      <point x="583" y="983" type="line" smooth="yes"/>
      <point x="583" y="1015"/>
      <point x="582" y="1055"/>
      <point x="581" y="1105"/>
      <point x="579" y="1135"/>
      <point x="575" y="1171"/>
      <point x="570" y="1190"/>
      <point x="561" y="1213"/>
      <point x="550" y="1225"/>
      <point x="536" y="1235"/>
      <point x="517" y="1239"/>
      <point x="506" y="1239" type="qcurve" smooth="yes"/>
      <point x="432" y="1239"/>
      <point x="432" y="1157" type="qcurve" smooth="yes"/>
      <point x="432" y="1056" type="line" smooth="no"/>
      <point x="84" y="1056" type="line" smooth="no"/>
      <point x="83" y="1073"/>
      <point x="83" y="1105" type="qcurve" smooth="yes"/>
      <point x="83" y="1319"/>
      <point x="286" y="1518"/>
      <point x="524" y="1518" type="qcurve" smooth="yes"/>
      <point x="601" y="1518"/>
      <point x="745" y="1475"/>
      <point x="869" y="1390"/>
      <point x="944" y="1240"/>
      <point x="944" y="1143" type="qcurve" smooth="yes"/>
      <point x="944" y="0" type="line" smooth="no"/>
      <point x="588" y="0" type="line" smooth="no"/>
      <point x="588" y="156" type="line" smooth="no"/>
      <point x="570" y="90"/>
      <point x="440" y="-18"/>
      <point x="365" y="-18" type="qcurve" smooth="yes"/>
      <point x="311" y="-18"/>
      <point x="229" y="1"/>
      <point x="147" y="59"/>
      <point x="94" y="156"/>
      <point x="61" y="319"/>
    </contour>
    <contour>
      <point x="426" y="570" type="qcurve" smooth="yes"/>
      <point x="426" y="395" type="line" smooth="yes"/>
      <point x="426" y="262"/>
      <point x="506" y="262" type="qcurve" smooth="yes"/>
      <point x="528" y="262"/>
      <point x="560" y="286"/>
      <point x="576" y="324"/>
      <point x="582" y="360"/>
      <point x="582" y="379" type="qcurve" smooth="yes"/>
      <point x="582" y="774" type="line" smooth="no"/>
      <point x="490" y="737"/>
      <point x="426" y="638"/>
    </contour>
    <contour>
      <point x="372" y="1712" type="qcurve" smooth="yes"/>
      <point x="340" y="1712"/>
      <point x="314" y="1623" type="qcurve" smooth="no"/>
      <point x="92" y="1729" type="line" smooth="no"/>
      <point x="145" y="1859"/>
      <point x="280" y="1988"/>
      <point x="372" y="1988" type="qcurve" smooth="yes"/>
      <point x="410" y="1988"/>
      <point x="582" y="1880"/>
      <point x="648" y="1880"/>
      <point x="674" y="1959" type="qcurve" smooth="no"/>
      <point x="906" y="1903" type="line" smooth="no"/>
      <point x="851" y="1753"/>
      <point x="709" y="1602"/>
      <point x="614" y="1602" type="qcurve" smooth="yes"/>
      <point x="579" y="1602"/>
      <point x="507" y="1636"/>
      <point x="458" y="1678"/>
      <point x="397" y="1712"/>
    </contour>
  </outline>
</glyph>
<glyph name="ntilde" format="1">
  <advance width="1012"/>
  <unicode hex="00f1"/>
  <outline>
    <contour>
      <point x="67" y="0" type="line" smooth="no"/>
      <point x="67" y="1501" type="line" smooth="no"/>
      <point x="425" y="1501" type="line" smooth="no"/>
      <point x="425" y="1329" type="line" smooth="no"/>
      <point x="447" y="1426"/>
      <point x="566" y="1518"/>
      <point x="651" y="1518" type="qcurve" smooth="yes"/>
      <point x="792" y="1518"/>
      <point x="948" y="1341"/>
      <point x="948" y="1157" type="qcurve" smooth="yes"/>
      <point x="948" y="0" type="line" smooth="no"/>
      <point x="595" y="0" type="line" smooth="no"/>
      <point x="595" y="1120" type="line" smooth="yes"/>
      <point x="595" y="1167"/>
      <point x="557" y="1239"/>
      <point x="515" y="1239" type="qcurve" smooth="yes"/>
      <point x="489" y="1239"/>
      <point x="453" y="1210"/>
      <point x="436" y="1173"/>
      <point x="426" y="1113"/>
      <point x="425" y="1081"/>
      <point x="425" y="1055" type="qcurve" smooth="yes"/>
      <point x="425" y="0" type="line" smooth="no"/>
    </contour>
    <contour>
      <point x="369" y="1712" type="qcurve" smooth="yes"/>
      <point x="337" y="1712"/>
      <point x="311" y="1623" type="qcurve" smooth="no"/>
      <point x="89" y="1729" type="line" smooth="no"/>
      <point x="142" y="1859"/>
      <point x="277" y="1988"/>
      <point x="369" y="1988" type="qcurve" smooth="yes"/>
      <point x="407" y="1988"/>
      <point x="579" y="1880"/>
      <point x="645" y="1880"/>
      <point x="671" y="1959" type="qcurve" smooth="no"/>
      <point x="903" y="1903" type="line" smooth="no"/>
      <point x="848" y="1753"/>
      <point x="706" y="1602"/>
      <point x="611" y="1602" type="qcurve" smooth="yes"/>
      <point x="576" y="1602"/>
      <point x="504" y="1636"/>
      <point x="455" y="1678"/>
      <point x="394" y="1712"/>
    </contour>
  </outline>
</glyph>
<glyph name="ograve" format="1">
  <advance width="1036"/>
  <unicode hex="00f2"/>
  <outline>
    <contour>
      <point x="520" y="-18" type="qcurve" smooth="yes"/>
      <point x="72" y="-18"/>
      <point x="72" y="449" type="qcurve" smooth="yes"/>
      <point x="72" y="1051" type="line" smooth="yes"/>
      <point x="72" y="1266"/>
      <point x="312" y="1518"/>
      <point x="520" y="1518" type="qcurve" smooth="yes"/>
      <point x="729" y="1518"/>
      <point x="969" y="1266"/>
      <point x="969" y="1051" type="qcurve" smooth="yes"/>
      <point x="969" y="449" type="line" smooth="yes"/>
      <point x="969" y="214"/>
      <point x="740" y="-18"/>
    </contour>
    <contour>
      <point x="436" y="1239"/>
      <point x="436" y="1108" type="qcurve" smooth="yes"/>
      <point x="436" y="375" type="line" smooth="yes"/>
      <point x="436" y="315"/>
      <point x="483" y="260"/>
      <point x="557" y="260"/>
      <point x="604" y="315"/>
      <point x="604" y="375" type="qcurve" smooth="yes"/>
      <point x="604" y="1108" type="line" smooth="yes"/>
      <point x="604" y="1239"/>
    </contour>
    <contour>
      <point x="739" y="1553" type="line" smooth="no"/>
      <point x="264" y="1647" type="line" smooth="no"/>
      <point x="264" y="1994" type="line" smooth="no"/>
      <point x="739" y="1776" type="line" smooth="no"/>
    </contour>
  </outline>
</glyph>
<glyph name="otilde" format="1">
  <advance width="1036"/>
  <unicode hex="00f5"/>
  <outline>
    <contour>
      <point x="520" y="-18" type="qcurve" smooth="yes"/>
      <point x="72" y="-18"/>
      <point x="72" y="449" type="qcurve" smooth="yes"/>
      <point x="72" y="1051" type="line" smooth="yes"/>
      <point x="72" y="1266"/>
      <point x="312" y="1518"/>
      <point x="520" y="1518" type="qcurve" smooth="yes"/>
      <point x="729" y="1518"/>
      <point x="969" y="1266"/>
      <point x="969" y="1051" type="qcurve" smooth="yes"/>
      <point x="969" y="449" type="line" smooth="yes"/>
      <point x="969" y="214"/>
      <point x="740" y="-18"/>
    </contour>
    <contour>
      <point x="436" y="1239"/>
      <point x="436" y="1108" type="qcurve" smooth="yes"/>
      <point x="436" y="375" type="line" smooth="yes"/>
      <point x="436" y="315"/>
      <point x="483" y="260"/>
      <point x="557" y="260"/>
      <point x="604" y="315"/>
      <point x="604" y="375" type="qcurve" smooth="yes"/>
      <point x="604" y="1108" type="line" smooth="yes"/>
      <point x="604" y="1239"/>
    </contour>
    <contour>
      <point x="381" y="1712" type="qcurve" smooth="yes"/>
      <point x="349" y="1712"/>
      <point x="323" y="1623" type="qcurve" smooth="no"/>
      <point x="101" y="1729" type="line" smooth="no"/>
      <point x="154" y="1859"/>
      <point x="289" y="1988"/>
      <point x="381" y="1988" type="qcurve" smooth="yes"/>
      <point x="419" y="1988"/>
      <point x="591" y="1880"/>
      <point x="657" y="1880"/>
      <point x="683" y="1959" type="qcurve" smooth="no"/>
      <point x="915" y="1903" type="line" smooth="no"/>
      <point x="860" y="1753"/>
      <point x="718" y="1602"/>
      <point x="623" y="1602" type="qcurve" smooth="yes"/>
      <point x="588" y="1602"/>
      <point x="516" y="1636"/>
      <point x="467" y="1678"/>
      <point x="406" y="1712"/>
    </contour>
  </outline>
</glyph>
<glyph name="ucircumflex" format="1">
  <advance width="1013"/>
  <unicode hex="00fb"/>
  <outline>
    <contour>
      <point x="591" y="1500" type="line" smooth="no"/>
      <point x="947" y="1500" type="line" smooth="no"/>
      <point x="947" y="0" type="line" smooth="no"/>
      <point x="589" y="0" type="line" smooth="no"/>
      <point x="589" y="160" type="line" smooth="no"/>
      <point x="547" y="54"/>
      <point x="438" y="-18"/>
      <point x="358" y="-18" type="qcurve" smooth="yes"/>
      <point x="282" y="-18"/>
      <point x="172" y="27"/>
      <point x="110" y="96"/>
      <point x="75" y="207"/>
      <point x="65" y="311"/>
      <point x="65" y="383" type="qcurve" smooth="yes"/>
      <point x="65" y="1500" type="line" smooth="no"/>
      <point x="425" y="1500" type="line" smooth="no"/>
      <point x="425" y="455" type="line" smooth="yes"/>
      <point x="425" y="341"/>
      <point x="452" y="264"/>
      <point x="505" y="264" type="qcurve" smooth="yes"/>
      <point x="525" y="264"/>
      <point x="556" y="279"/>
      <point x="573" y="311"/>
      <point x="584" y="341"/>
      <point x="588" y="390"/>
      <point x="589" y="418"/>
      <point x="589" y="443" type="qcurve" smooth="yes"/>
      <point x="589" y="455" type="line" smooth="yes"/>
    </contour>
    <contour>
      <point x="710" y="1994" type="line" smooth="no"/>
      <point x="951" y="1591" type="line" smooth="no"/>
      <point x="592" y="1591" type="line" smooth="no"/>
      <point x="506" y="1876" type="line" smooth="no"/>
      <point x="420" y="1591" type="line" smooth="no"/>
      <point x="61" y="1591" type="line" smooth="no"/>
      <point x="302" y="1994" type="line" smooth="no"/>
    </contour>
  </outline>
</glyph>
<glyph name="udieresis" format="1">
  <advance width="1013"/>
  <unicode hex="00fc"/>
  <outline>
    <contour>
      <point x="591" y="1500" type="line" smooth="no"/>
      <point x="947" y="1500" type="line" smooth="no"/>
      <point x="947" y="0" type="line" smooth="no"/>
      <point x="589" y="0" type="line" smooth="no"/>
      <point x="589" y="160" type="line" smooth="no"/>
      <point x="547" y="54"/>
      <point x="438" y="-18"/>
      <point x="358" y="-18" type="qcurve" smooth="yes"/>
      <point x="282" y="-18"/>
      <point x="172" y="27"/>
      <point x="110" y="96"/>
      <point x="75" y="207"/>
      <point x="65" y="311"/>
      <point x="65" y="383" type="qcurve" smooth="yes"/>
      <point x="65" y="1500" type="line" smooth="no"/>
      <point x="425" y="1500" type="line" smooth="no"/>
      <point x="425" y="455" type="line" smooth="yes"/>
      <point x="425" y="341"/>
      <point x="452" y="264"/>
      <point x="505" y="264" type="qcurve" smooth="yes"/>
      <point x="525" y="264"/>
      <point x="556" y="279"/>
      <point x="573" y="311"/>
      <point x="584" y="341"/>
      <point x="588" y="390"/>
      <point x="589" y="418"/>
      <point x="589" y="443" type="qcurve" smooth="yes"/>
      <point x="589" y="455" type="line" smooth="yes"/>
    </contour>
    <contour>
      <point x="85" y="1591" type="line" smooth="no"/>
      <point x="85" y="1889" type="line" smooth="no"/>
      <point x="443" y="1889" type="line" smooth="no"/>
      <point x="443" y="1591" type="line" smooth="no"/>
    </contour>
    <contour>
      <point x="569" y="1591" type="line" smooth="no"/>
      <point x="569" y="1889" type="line" smooth="no"/>
      <point x="927" y="1889" type="line" smooth="no"/>
      <point x="927" y="1591" type="line" smooth="no"/>
    </contour>
  </outline>
</glyph>
<glyph name="ydieresis" format="1">
  <advance width="1018"/>
  <unicode hex="00ff"/>
  <outline>
    <contour>
      <point x="86" y="-186" type="line" smooth="no"/>
      <point x="86" y="41" type="line" smooth="no"/>
      <point x="198" y="41" type="line" smooth="yes"/>
      <point x="254" y="41"/>
      <point x="295" y="69"/>
      <point x="295" y="103" type="qcurve" smooth="yes"/>
      <point x="295" y="122"/>
      <point x="290" y="155" type="qcurve" smooth="yes"/>
      <point x="59" y="1501" type="line" smooth="no"/>
      <point x="412" y="1501" type="line" smooth="no"/>
      <point x="478" y="821" type="line" smooth="no"/>
      <point x="502" y="489" type="line" smooth="no"/>
      <point x="530" y="821" type="line" smooth="no"/>
      <point x="610" y="1501" type="line" smooth="no"/>
      <point x="965" y="1501" type="line" smooth="no"/>
      <point x="687" y="-14" type="line" smooth="no"/>
      <point x="683" y="-42"/>
      <point x="668" y="-88"/>
      <point x="653" y="-122"/>
      <point x="627" y="-148"/>
      <point x="607" y="-165"/>
      <point x="571" y="-177"/>
      <point x="548" y="-183"/>
      <point x="503" y="-186"/>
      <point x="451" y="-186" type="line" smooth="yes"/>
    </contour>
    <contour>
      <point x="88" y="1591" type="line" smooth="no"/>
      <point x="88" y="1889" type="line" smooth="no"/>
      <point x="446" y="1889" type="line" smooth="no"/>
      <point x="446" y="1591" type="line" smooth="no"/>
    </contour>
    <contour>
      <point x="572" y="1591" type="line" smooth="no"/>
      <point x="572" y="1889" type="line" smooth="no"/>
      <point x="930" y="1889" type="line" smooth="no"/>
      <point x="930" y="1591" type="line" smooth="no"/>
    </contour>
  </outline>
</glyph>
<glyph name="OE" format="1">
  <advance width="1367"/>
  <unicode hex="0152"/>
  <outline>
    <contour>
      <point x="1302" y="0" type="line" smooth="no"/>
      <point x="617" y="0" type="line" smooth="yes"/>
      <point x="61" y="0"/>
      <point x="61" y="430" type="qcurve" smooth="yes"/>
      <point x="61" y="1189" type="line" smooth="yes"/>
      <point x="61" y="1403"/>
      <point x="341" y="1593"/>
      <point x="609" y="1593" type="qcurve" smooth="yes"/>
      <point x="1279" y="1593" type="line" smooth="no"/>
      <point x="1279" y="1284" type="line" smooth="no"/>
      <point x="942" y="1284" type="line" smooth="no"/>
      <point x="942" y="973" type="line" smooth="no"/>
      <point x="1265" y="973" type="line" smooth="no"/>
      <point x="1265" y="674" type="line" smooth="no"/>
      <point x="942" y="674" type="line" smooth="no"/>
      <point x="942" y="311" type="line" smooth="no"/>
      <point x="1302" y="311" type="line" smooth="no"/>
    </contour>
    <contour>
      <point x="409" y="477" type="line" smooth="yes"/>
      <point x="409" y="391"/>
      <point x="474" y="308"/>
      <point x="524" y="308" type="qcurve" smooth="yes"/>
      <point x="554" y="308"/>
      <point x="585" y="322" type="qcurve" smooth="no"/>
      <point x="585" y="1280" type="line" smooth="no"/>
      <point x="558" y="1289"/>
      <point x="530" y="1289" type="qcurve" smooth="yes"/>
      <point x="478" y="1289"/>
      <point x="409" y="1219"/>
      <point x="409" y="1147" type="qcurve" smooth="yes"/>
    </contour>
  </outline>
</glyph>
<glyph name="oe" format="1">
  <advance width="1535"/>
  <unicode hex="0153"/>
  <outline>
    <contour>
      <point x="509" y="-18" type="qcurve" smooth="yes"/>
      <point x="61" y="-18"/>
      <point x="61" y="449" type="qcurve" smooth="yes"/>
      <point x="61" y="1051" type="line" smooth="yes"/>
      <point x="61" y="1266"/>
      <point x="301" y="1518"/>
      <point x="509" y="1518" type="qcurve" smooth="yes"/>
      <point x="662" y="1518"/>
      <point x="774" y="1422" type="qcurve" smooth="no"/>
      <point x="876" y="1518"/>
      <point x="1043" y="1518" type="qcurve" smooth="yes"/>
      <point x="1475" y="1518"/>
      <point x="1475" y="1092" type="qcurve" smooth="yes"/>
      <point x="1475" y="983" type="line" smooth="yes"/>
      <point x="1475" y="780"/>
      <point x="1471" y="704" type="qcurve" smooth="no"/>
      <point x="951" y="704" type="line" smooth="no"/>
      <point x="951" y="494" type="line" smooth="yes"/>
      <point x="951" y="484"/>
      <point x="950" y="439"/>
      <point x="950" y="427" type="qcurve" smooth="yes"/>
      <point x="950" y="391"/>
      <point x="956" y="340"/>
      <point x="972" y="287"/>
      <point x="1009" y="260"/>
      <point x="1037" y="260" type="qcurve" smooth="yes"/>
      <point x="1066" y="260"/>
      <point x="1102" y="301"/>
      <point x="1117" y="378"/>
      <point x="1121" y="438"/>
      <point x="1121" y="483" type="qcurve" smooth="yes"/>
      <point x="1121" y="571"/>
      <point x="1119" y="579" type="qcurve" smooth="no"/>
      <point x="1475" y="579" type="line" smooth="no"/>
      <point x="1475" y="494" type="line" smooth="yes"/>
      <point x="1475" y="369"/>
      <point x="1437" y="193"/>
      <point x="1340" y="52"/>
      <point x="1160" y="-18"/>
      <point x="1025" y="-18" type="qcurve" smooth="yes"/>
      <point x="874" y="-18"/>
      <point x="779" y="69" type="qcurve" smooth="no"/>
      <point x="674" y="-18"/>
    </contour>
    <contour>
      <point x="425" y="1239"/>
      <point x="425" y="1108" type="qcurve" smooth="yes"/>
      <point x="425" y="375" type="line" smooth="yes"/>
      <point x="425" y="315"/>
      <point x="472" y="260"/>
      <point x="546" y="260"/>
      <point x="593" y="315"/>
      <point x="593" y="375" type="qcurve" smooth="yes"/>
      <point x="593" y="1108" type="line" smooth="yes"/>
      <point x="593" y="1239"/>
    </contour>
    <contour>
      <point x="1039" y="1249" type="qcurve" smooth="yes"/>
      <point x="1011" y="1249"/>
      <point x="973" y="1220"/>
      <point x="955" y="1162"/>
      <point x="949" y="1101"/>
      <point x="949" y="1057" type="qcurve" smooth="yes"/>
      <point x="949" y="1036"/>
      <point x="951" y="952"/>
      <point x="951" y="931" type="qcurve" smooth="no"/>
      <point x="1119" y="931" type="line" smooth="no"/>
      <point x="1119" y="1087" type="line" smooth="yes"/>
      <point x="1119" y="1249"/>
    </contour>
  </outline>
</glyph>
<glyph name="Zcaron" format="1">
  <advance width="954"/>
  <unicode hex="017d"/>
  <outline>
    <contour>
      <point x="70" y="0" type="line" smooth="no"/>
      <point x="70" y="303" type="line" smooth="no"/>
      <point x="492" y="1284" type="line" smooth="no"/>
      <point x="109" y="1284" type="line" smooth="no"/>
      <point x="109" y="1593" type="line" smooth="no"/>
      <point x="883" y="1593" type="line" smooth="no"/>
      <point x="883" y="1296" type="line" smooth="no"/>
      <point x="453" y="307" type="line" smooth="no"/>
      <point x="866" y="307" type="line" smooth="no"/>
      <point x="866" y="0" type="line" smooth="no"/>
    </contour>
    <contour>
      <point x="681" y="1683" type="line" smooth="no"/>
      <point x="273" y="1683" type="line" smooth="no"/>
      <point x="32" y="2086" type="line" smooth="no"/>
      <point x="391" y="2086" type="line" smooth="no"/>
      <point x="477" y="1801" type="line" smooth="no"/>
      <point x="563" y="2086" type="line" smooth="no"/>
      <point x="922" y="2086" type="line" smooth="no"/>
    </contour>
  </outline>
</glyph>
<glyph name="zcaron" format="1">
  <advance width="954"/>
  <unicode hex="017e"/>
  <outline>
    <contour>
      <point x="72" y="0" type="line" smooth="no"/>
      <point x="72" y="272" type="line" smooth="no"/>
      <point x="485" y="1194" type="line" smooth="no"/>
      <point x="111" y="1194" type="line" smooth="no"/>
      <point x="111" y="1500" type="line" smooth="no"/>
      <point x="881" y="1500" type="line" smooth="no"/>
      <point x="881" y="1194" type="line" smooth="no"/>
      <point x="479" y="301" type="line" smooth="no"/>
      <point x="856" y="301" type="line" smooth="no"/>
      <point x="856" y="0" type="line" smooth="no"/>
    </contour>
    <contour>
      <point x="681" y="1591" type="line" smooth="no"/>
      <point x="273" y="1591" type="line" smooth="no"/>
      <point x="32" y="1994" type="line" smooth="no"/>
      <point x="391" y="1994" type="line" smooth="no"/>
      <point x="477" y="1709" type="line" smooth="no"/>
      <point x="563" y="1994" type="line" smooth="no"/>
      <point x="922" y="1994" type="line" smooth="no"/>
    </contour>
  </outline>
</glyph>
<glyph name="uni0200" format="1">
  <advance width="1051"/>
  <unicode hex="0200"/>
  <outline>
    <contour>
      <point x="801" y="1593" type="line" smooth="no"/>
      <point x="977" y="0" type="line" smooth="no"/>
      <point x="637" y="0" type="line" smooth="no"/>
      <point x="612" y="240" type="line" smooth="no"/>
      <point x="434" y="240" type="line" smooth="no"/>
      <point x="412" y="0" type="line" smooth="no"/>
      <point x="70" y="0" type="line" smooth="no"/>
      <point x="250" y="1593" type="line" smooth="no"/>
    </contour>
    <contour>
      <point x="538" y="1294" type="line" smooth="no"/>
      <point x="506" y="1294" type="line" smooth="no"/>
      <point x="459" y="530" type="line" smooth="no"/>
      <point x="585" y="530" type="line" smooth="no"/>
    </contour>
    <contour>
      <point x="676" y="1729" type="line" smooth="no"/>
      <point x="428" y="2158" type="line" smooth="no"/>
      <point x="658" y="2266" type="line" smooth="no"/>
      <point x="842" y="1787" type="line" smooth="no"/>
    </contour>
    <contour>
      <point x="374" y="1729" type="line" smooth="no"/>
      <point x="86" y="2158" type="line" smooth="no"/>
      <point x="320" y="2266" type="line" smooth="no"/>
      <point x="540" y="1787" type="line" smooth="no"/>
    </contour>
  </outline>
</glyph>
<glyph name="uni0206" format="1">
  <advance width="872"/>
  <unicode hex="0206"/>
  <outline>
    <contour>
      <point x="72" y="0" type="line" smooth="no"/>
      <point x="72" y="1593" type="line" smooth="no"/>
      <point x="776" y="1593" type="line" smooth="no"/>
      <point x="776" y="1284" type="line" smooth="no"/>
      <point x="430" y="1284" type="line" smooth="no"/>
      <point x="430" y="973" type="line" smooth="no"/>
      <point x="762" y="973" type="line" smooth="no"/>
      <point x="762" y="674" type="line" smooth="no"/>
      <point x="430" y="674" type="line" smooth="no"/>
      <point x="430" y="311" type="line" smooth="no"/>
      <point x="799" y="311" type="line" smooth="no"/>
      <point x="799" y="0" type="line" smooth="no"/>
    </contour>
    <contour>
      <point x="372" y="1842"/>
      <point x="310" y="1788"/>
      <point x="310" y="1730" type="qcurve" smooth="no"/>
      <point x="-6" y="1729" type="line" smooth="no"/>
      <point x="-10" y="1750"/>
      <point x="-10" y="1771" type="qcurve" smooth="yes"/>
      <point x="-10" y="1915"/>
      <point x="220" y="2082"/>
      <point x="422" y="2082" type="qcurve" smooth="yes"/>
      <point x="628" y="2082"/>
      <point x="858" y="1912"/>
      <point x="858" y="1764" type="qcurve" smooth="yes"/>
      <point x="858" y="1753"/>
      <point x="856" y="1729" type="qcurve" smooth="no"/>
      <point x="540" y="1729"/>
      <point x="540" y="1730" type="qcurve" smooth="yes"/>
      <point x="540" y="1788"/>
      <point x="478" y="1842"/>
    </contour>
  </outline>
</glyph>
<glyph name="uni020A" format="1">
  <advance width="498"/>
  <unicode hex="020a"/>
  <outline>
    <contour>
      <point x="76" y="0" type="line" smooth="no"/>
      <point x="76" y="1593" type="line" smooth="no"/>
      <point x="416" y="1593" type="line" smooth="no"/>
      <point x="416" y="0" type="line" smooth="no"/>
    </contour>
    <contour>
      <point x="194" y="1842"/>
      <point x="132" y="1788"/>
      <point x="132" y="1730" type="qcurve" smooth="no"/>
      <point x="-184" y="1729" type="line" smooth="no"/>
      <point x="-188" y="1750"/>
      <point x="-188" y="1771" type="qcurve" smooth="yes"/>
      <point x="-188" y="1915"/>
      <point x="42" y="2082"/>
      <point x="244" y="2082" type="qcurve" smooth="yes"/>
      <point x="450" y="2082"/>
      <point x="680" y="1912"/>
      <point x="680" y="1764" type="qcurve" smooth="yes"/>
      <point x="680" y="1753"/>
      <point x="678" y="1729" type="qcurve" smooth="no"/>
      <point x="362" y="1729"/>
      <point x="362" y="1730" type="qcurve" smooth="yes"/>
      <point x="362" y="1788"/>
      <point x="300" y="1842"/>
    </contour>
  </outline>
</glyph>
<glyph name="uni020D" format="1">
  <advance width="1036"/>
  <unicode hex="020d"/>
  <outline>
    <contour>
      <point x="520" y="-18" type="qcurve" smooth="yes"/>
      <point x="72" y="-18"/>
      <point x="72" y="449" type="qcurve" smooth="yes"/>
      <point x="72" y="1051" type="line" smooth="yes"/>
      <point x="72" y="1266"/>
      <point x="312" y="1518"/>
      <point x="520" y="1518" type="qcurve" smooth="yes"/>
      <point x="729" y="1518"/>
      <point x="969" y="1266"/>
      <point x="969" y="1051" type="qcurve" smooth="yes"/>
      <point x="969" y="449" type="line" smooth="yes"/>
      <point x="969" y="214"/>
      <point x="740" y="-18"/>
    </contour>
    <contour>
      <point x="436" y="1239"/>
      <point x="436" y="1108" type="qcurve" smooth="yes"/>
      <point x="436" y="375" type="line" smooth="yes"/>
      <point x="436" y="315"/>
      <point x="483" y="260"/>
      <point x="557" y="260"/>
      <point x="604" y="315"/>
      <point x="604" y="375" type="qcurve" smooth="yes"/>
      <point x="604" y="1108" type="line" smooth="yes"/>
      <point x="604" y="1239"/>
    </contour>
    <contour>
      <point x="671" y="1640" type="line" smooth="no"/>
      <point x="423" y="2069" type="line" smooth="no"/>
      <point x="653" y="2177" type="line" smooth="no"/>
      <point x="837" y="1698" type="line" smooth="no"/>
    </contour>
    <contour>
      <point x="369" y="1640" type="line" smooth="no"/>
      <point x="80" y="2069" type="line" smooth="no"/>
      <point x="314" y="2177" type="line" smooth="no"/>
      <point x="535" y="1698" type="line" smooth="no"/>
    </contour>
  </outline>
</glyph>
<glyph name="uni0216" format="1">
  <advance width="1014"/>
  <unicode hex="0216"/>
  <outline>
    <contour>
      <point x="283" y="-18"/>
      <point x="76" y="206"/>
      <point x="76" y="422" type="qcurve" smooth="yes"/>
      <point x="76" y="1593" type="line" smooth="no"/>
      <point x="418" y="1593" type="line" smooth="no"/>
      <point x="418" y="453" type="line" smooth="yes"/>
      <point x="418" y="446" type="line" smooth="yes"/>
      <point x="418" y="420"/>
      <point x="419" y="390"/>
      <point x="428" y="338"/>
      <point x="445" y="308"/>
      <point x="479" y="285"/>
      <point x="504" y="285" type="qcurve" smooth="yes"/>
      <point x="525" y="285"/>
      <point x="556" y="299"/>
      <point x="574" y="328"/>
      <point x="585" y="355"/>
      <point x="589" y="400"/>
      <point x="590" y="424"/>
      <point x="590" y="446" type="qcurve" smooth="yes"/>
      <point x="590" y="453" type="line" smooth="yes"/>
      <point x="590" y="1593" type="line" smooth="no"/>
      <point x="932" y="1593" type="line" smooth="no"/>
      <point x="932" y="422" type="line" smooth="yes"/>
      <point x="932" y="206"/>
      <point x="725" y="-18"/>
    </contour>
    <contour>
      <point x="452" y="1842"/>
      <point x="390" y="1788"/>
      <point x="390" y="1730" type="qcurve" smooth="no"/>
      <point x="74" y="1729" type="line" smooth="no"/>
      <point x="70" y="1750"/>
      <point x="70" y="1771" type="qcurve" smooth="yes"/>
      <point x="70" y="1915"/>
      <point x="300" y="2082"/>
      <point x="502" y="2082" type="qcurve" smooth="yes"/>
      <point x="708" y="2082"/>
      <point x="938" y="1912"/>
      <point x="938" y="1764" type="qcurve" smooth="yes"/>
      <point x="938" y="1753"/>
      <point x="936" y="1729" type="qcurve" smooth="no"/>
      <point x="620" y="1729"/>
      <point x="620" y="1730" type="qcurve" smooth="yes"/>
      <point x="620" y="1788"/>
      <point x="558" y="1842"/>
    </contour>
  </outline>
</glyph>
<glyph name="uni021A" format="1">
  <advance width="903"/>
  <unicode hex="021a"/>
  <outline>
    <contour>
      <point x="66" y="1593" type="line" smooth="no"/>
      <point x="836" y="1593" type="line" smooth="no"/>
      <point x="836" y="1286" type="line" smooth="no"/>
      <point x="627" y="1286" type="line" smooth="no"/>
      <point x="627" y="0" type="line" smooth="no"/>
      <point x="275" y="0" type="line" smooth="no"/>
      <point x="275" y="1286" type="line" smooth="no"/>
      <point x="66" y="1286" type="line" smooth="no"/>
    </contour>
    <contour>
      <point x="264" y="-420" type="line" smooth="no"/>
      <point x="264" y="-122" type="line" smooth="no"/>
      <point x="638" y="-122" type="line" smooth="no"/>
      <point x="638" y="-411" type="line" smooth="no"/>
      <point x="536" y="-656" type="line" smooth="no"/>
      <point x="325" y="-656" type="line" smooth="no"/>
      <point x="391" y="-420" type="line" smooth="no"/>
    </contour>
  </outline>
</glyph>
<glyph name="uni021B" format="1">
  <advance width="616"/>
  <unicode hex="021b"/>
  <outline>
    <contour>
      <point x="129" y="1761" type="line" smooth="no"/>
      <point x="477" y="1761" type="line" smooth="no"/>
      <point x="477" y="1442" type="line" smooth="no"/>
      <point x="541" y="1442" type="line" smooth="no"/>
      <point x="541" y="1169" type="line" smooth="no"/>
      <point x="477" y="1169" type="line" smooth="no"/>
      <point x="477" y="325" type="line" smooth="yes"/>
      <point x="477" y="306"/>
      <point x="479" y="284"/>
      <point x="485" y="259"/>
      <point x="502" y="248"/>
      <point x="528" y="248"/>
      <point x="541" y="252" type="qcurve" smooth="no"/>
      <point x="541" y="8" type="line" smooth="no"/>
      <point x="465" y="-18"/>
      <point x="350" y="-18" type="qcurve" smooth="yes"/>
      <point x="292" y="-18"/>
      <point x="209" y="13"/>
      <point x="163" y="58"/>
      <point x="136" y="129"/>
      <point x="129" y="191"/>
      <point x="129" y="231" type="qcurve" smooth="yes"/>
      <point x="129" y="1169" type="line" smooth="no"/>
      <point x="74" y="1169" type="line" smooth="no"/>
      <point x="74" y="1442" type="line" smooth="no"/>
      <point x="129" y="1442" type="line" smooth="no"/>
    </contour>
    <contour>
      <point x="163" y="-438" type="line" smooth="no"/>
      <point x="163" y="-140" type="line" smooth="no"/>
      <point x="537" y="-140" type="line" smooth="no"/>
      <point x="537" y="-429" type="line" smooth="no"/>
      <point x="435" y="-674" type="line" smooth="no"/>
      <point x="224" y="-674" type="line" smooth="no"/>
      <point x="290" y="-438" type="line" smooth="no"/>
    </contour>
  </outline>
</glyph>
<glyph name="breve" format="1">
  <advance width="1015"/>
  <unicode hex="02d8"/>
  <outline>
    <contour>
      <point x="556" y="1832"/>
      <point x="618" y="1886"/>
      <point x="618" y="1944" type="qcurve" smooth="yes"/>
      <point x="618" y="1945"/>
      <point x="934" y="1945" type="qcurve" smooth="no"/>
      <point x="936" y="1921"/>
      <point x="936" y="1910" type="qcurve" smooth="yes"/>
      <point x="936" y="1762"/>
      <point x="707" y="1592"/>
      <point x="501" y="1592" type="qcurve" smooth="yes"/>
      <point x="299" y="1592"/>
      <point x="69" y="1759"/>
      <point x="69" y="1903" type="qcurve" smooth="yes"/>
      <point x="69" y="1924"/>
      <point x="72" y="1945" type="qcurve" smooth="no"/>
      <point x="388" y="1944" type="line" smooth="no"/>
      <point x="388" y="1886"/>
      <point x="450" y="1832"/>
    </contour>
  </outline>
</glyph>
<glyph name="dotaccent" format="1">
  <advance width="491"/>
  <unicode hex="02d9"/>
  <outline>
    <contour>
      <point x="67" y="1592" type="line" smooth="no"/>
      <point x="67" y="1890" type="line" smooth="no"/>
      <point x="425" y="1890" type="line" smooth="no"/>
      <point x="425" y="1592" type="line" smooth="no"/>
    </contour>
  </outline>
</glyph>
<glyph name="ogonek" format="1">
  <advance width="1015"/>
  <unicode hex="02db"/>
  <outline>
    <contour>
      <point x="852" y="-591" type="line" smooth="no"/>
      <point x="756" y="-631"/>
      <point x="654" y="-631" type="qcurve" smooth="yes"/>
      <point x="507" y="-631"/>
      <point x="306" y="-469"/>
      <point x="306" y="-330" type="qcurve" smooth="yes"/>
      <point x="306" y="-149"/>
      <point x="570" y="0" type="qcurve" smooth="no"/>
      <point x="781" y="0" type="line" smooth="no"/>
      <point x="697" y="-102"/>
      <point x="621" y="-230"/>
      <point x="621" y="-279" type="qcurve" smooth="yes"/>
      <point x="621" y="-337"/>
      <point x="683" y="-391"/>
      <point x="736" y="-391" type="qcurve" smooth="yes"/>
      <point x="786" y="-391"/>
      <point x="852" y="-368" type="qcurve" smooth="no"/>
    </contour>
  </outline>
</glyph>
<glyph name="tilde" format="1">
  <advance width="1015"/>
  <unicode hex="02dc"/>
  <outline>
    <contour>
      <point x="370" y="1712" type="qcurve" smooth="yes"/>
      <point x="338" y="1712"/>
      <point x="312" y="1623" type="qcurve" smooth="no"/>
      <point x="90" y="1729" type="line" smooth="no"/>
      <point x="143" y="1859"/>
      <point x="278" y="1988"/>
      <point x="370" y="1988" type="qcurve" smooth="yes"/>
      <point x="408" y="1988"/>
      <point x="580" y="1880"/>
      <point x="646" y="1880"/>
      <point x="672" y="1959" type="qcurve" smooth="no"/>
      <point x="904" y="1903" type="line" smooth="no"/>
      <point x="849" y="1753"/>
      <point x="707" y="1602"/>
      <point x="612" y="1602" type="qcurve" smooth="yes"/>
      <point x="577" y="1602"/>
      <point x="505" y="1636"/>
      <point x="456" y="1678"/>
      <point x="395" y="1712"/>
    </contour>
  </outline>
</glyph>
<glyph name="uni030F" format="1">
  <advance width="1300"/>
  <unicode hex="030f"/>
  <outline>
    <contour>
      <point x="825" y="1236" type="line" smooth="no"/>
      <point x="577" y="1665" type="line" smooth="no"/>
      <point x="807" y="1773" type="line" smooth="no"/>
      <point x="991" y="1294" type="line" smooth="no"/>
    </contour>
    <contour>
      <point x="523" y="1236" type="line" smooth="no"/>
      <point x="234" y="1665" type="line" smooth="no"/>
      <point x="468" y="1773" type="line" smooth="no"/>
      <point x="689" y="1294" type="line" smooth="no"/>
    </contour>
  </outline>
</glyph>
<glyph name="Omega" format="1">
  <advance width="1014"/>
  <unicode hex="03a9"/>
  <outline>
    <contour>
      <point x="721" y="1607"/>
      <point x="931" y="1388"/>
      <point x="931" y="1189" type="qcurve" smooth="yes"/>
      <point x="931" y="710" type="line" smooth="yes"/>
      <point x="931" y="394"/>
      <point x="834" y="246" type="qcurve" smooth="no"/>
      <point x="956" y="246" type="line" smooth="no"/>
      <point x="956" y="0" type="line" smooth="no"/>
      <point x="540" y="0" type="line" smooth="no"/>
      <point x="540" y="247" type="line" smooth="no"/>
      <point x="546" y="250" type="line" smooth="yes"/>
      <point x="569" y="262"/>
      <point x="584" y="298"/>
      <point x="592" y="424"/>
      <point x="592" y="581" type="qcurve" smooth="yes"/>
      <point x="592" y="1211" type="line" smooth="yes"/>
      <point x="592" y="1247"/>
      <point x="582" y="1296"/>
      <point x="542" y="1335"/>
      <point x="472" y="1335"/>
      <point x="432" y="1296"/>
      <point x="422" y="1247"/>
      <point x="422" y="1211" type="qcurve" smooth="yes"/>
      <point x="422" y="581" type="line" smooth="yes"/>
      <point x="422" y="493"/>
      <point x="423" y="442" type="qcurve" smooth="yes"/>
      <point x="425" y="297"/>
      <point x="442" y="271" type="qcurve" smooth="yes"/>
      <point x="448" y="261"/>
      <point x="474" y="247" type="qcurve" smooth="no"/>
      <point x="474" y="0" type="line" smooth="no"/>
      <point x="58" y="0" type="line" smooth="no"/>
      <point x="58" y="246" type="line" smooth="no"/>
      <point x="180" y="246" type="line" smooth="no"/>
      <point x="83" y="394"/>
      <point x="83" y="710" type="qcurve" smooth="yes"/>
      <point x="83" y="1189" type="line" smooth="yes"/>
      <point x="83" y="1388"/>
      <point x="293" y="1607"/>
    </contour>
  </outline>
</glyph>
<glyph name="emdash" format="1">
  <advance width="1166"/>
  <unicode hex="2014"/>
  <outline>
    <contour>
      <point x="67" y="741" type="line" smooth="no"/>
      <point x="1099" y="741" type="line" smooth="no"/>
      <point x="1099" y="509" type="line" smooth="no"/>
      <point x="67" y="509" type="line" smooth="no"/>
    </contour>
  </outline>
</glyph>
<glyph name="quoteleft" format="1">
  <advance width="479"/>
  <unicode hex="2018"/>
  <outline>
    <contour>
      <point x="427" y="1356" type="line" smooth="no"/>
      <point x="427" y="1058" type="line" smooth="no"/>
      <point x="53" y="1058" type="line" smooth="no"/>
      <point x="53" y="1347" type="line" smooth="no"/>
      <point x="155" y="1592" type="line" smooth="no"/>
      <point x="366" y="1592" type="line" smooth="no"/>
      <point x="300" y="1356" type="line" smooth="no"/>
    </contour>
  </outline>
</glyph>
<glyph name="quoteright" format="1">
  <advance width="479"/>
  <unicode hex="2019"/>
  <outline>
    <contour>
      <point x="52" y="1294" type="line" smooth="no"/>
      <point x="52" y="1592" type="line" smooth="no"/>
      <point x="426" y="1592" type="line" smooth="no"/>
      <point x="426" y="1303" type="line" smooth="no"/>
      <point x="324" y="1058" type="line" smooth="no"/>
      <point x="113" y="1058" type="line" smooth="no"/>
      <point x="179" y="1294" type="line" smooth="no"/>
    </contour>
  </outline>
</glyph>
<glyph name="quotedblbase" format="1">
  <advance width="967"/>
  <unicode hex="201e"/>
  <outline>
    <contour>
      <point x="533" y="0" type="line" smooth="no"/>
      <point x="533" y="298" type="line" smooth="no"/>
      <point x="907" y="298" type="line" smooth="no"/>
      <point x="907" y="9" type="line" smooth="no"/>
      <point x="805" y="-236" type="line" smooth="no"/>
      <point x="594" y="-236" type="line" smooth="no"/>
      <point x="660" y="0" type="line" smooth="no"/>
    </contour>
    <contour>
      <point x="60" y="0" type="line" smooth="no"/>
      <point x="60" y="298" type="line" smooth="no"/>
      <point x="434" y="298" type="line" smooth="no"/>
      <point x="434" y="9" type="line" smooth="no"/>
      <point x="332" y="-236" type="line" smooth="no"/>
      <point x="121" y="-236" type="line" smooth="no"/>
      <point x="187" y="0" type="line" smooth="no"/>
    </contour>
  </outline>
</glyph>
<glyph name="daggerdbl" format="1">
  <advance width="795"/>
  <unicode hex="2021"/>
  <outline>
    <contour>
      <point x="581" y="1592" type="line" smooth="no"/>
      <point x="581" y="1236" type="line" smooth="no"/>
      <point x="761" y="1236" type="line" smooth="no"/>
      <point x="761" y="940" type="line" smooth="no"/>
      <point x="581" y="940" type="line" smooth="no"/>
      <point x="581" y="646" type="line" smooth="no"/>
      <point x="761" y="646" type="line" smooth="no"/>
      <point x="761" y="350" type="line" smooth="no"/>
      <point x="581" y="350" type="line" smooth="no"/>
      <point x="581" y="0" type="line" smooth="no"/>
      <point x="217" y="0" type="line" smooth="no"/>
      <point x="217" y="350" type="line" smooth="no"/>
      <point x="34" y="350" type="line" smooth="no"/>
      <point x="34" y="646" type="line" smooth="no"/>
      <point x="217" y="646" type="line" smooth="no"/>
      <point x="217" y="940" type="line" smooth="no"/>
      <point x="34" y="940" type="line" smooth="no"/>
      <point x="34" y="1236" type="line" smooth="no"/>
      <point x="217" y="1236" type="line" smooth="no"/>
      <point x="217" y="1592" type="line" smooth="no"/>
    </contour>
  </outline>
</glyph>
<glyph name="bullet" format="1">
  <advance width="725"/>
  <unicode hex="2022"/>
  <outline>
    <contour>
      <point x="49" y="897"/>
      <point x="216" y="1079"/>
      <point x="508" y="1079"/>
      <point x="676" y="897"/>
      <point x="676" y="585"/>
      <point x="508" y="403"/>
      <point x="216" y="403"/>
      <point x="49" y="585"/>
    </contour>
  </outline>
</glyph>
<glyph name="ellipsis" format="1">
  <advance width="1473"/>
  <unicode hex="2026"/>
  <outline>
    <contour>
      <point x="67" y="1" type="line" smooth="no"/>
      <point x="67" y="299" type="line" smooth="no"/>
      <point x="425" y="299" type="line" smooth="no"/>
      <point x="425" y="1" type="line" smooth="no"/>
    </contour>
    <contour>
      <point x="558" y="1" type="line" smooth="no"/>
      <point x="558" y="299" type="line" smooth="no"/>
      <point x="916" y="299" type="line" smooth="no"/>
      <point x="916" y="1" type="line" smooth="no"/>
    </contour>
    <contour>
      <point x="1049" y="1" type="line" smooth="no"/>
      <point x="1049" y="299" type="line" smooth="no"/>
      <point x="1407" y="299" type="line" smooth="no"/>
      <point x="1407" y="1" type="line" smooth="no"/>
    </contour>
  </outline>
</glyph>
<glyph name="guilsinglleft" format="1">
  <advance width="594"/>
  <unicode hex="2039"/>
  <outline>
    <contour>
      <point x="18" y="545" type="line" smooth="no"/>
      <point x="18" y="959" type="line" smooth="no"/>
      <point x="528" y="1230" type="line" smooth="no"/>
      <point x="528" y="871" type="line" smooth="no"/>
      <point x="216" y="749" type="line" smooth="no"/>
      <point x="528" y="618" type="line" smooth="no"/>
      <point x="528" y="260" type="line" smooth="no"/>
    </contour>
  </outline>
</glyph>
<glyph name="guilsinglright" format="1">
  <advance width="595"/>
  <unicode hex="203a"/>
  <outline>
    <contour>
      <point x="577" y="545" type="line" smooth="no"/>
      <point x="67" y="260" type="line" smooth="no"/>
      <point x="67" y="618" type="line" smooth="no"/>
      <point x="379" y="749" type="line" smooth="no"/>
      <point x="67" y="871" type="line" smooth="no"/>
      <point x="67" y="1230" type="line" smooth="no"/>
      <point x="577" y="959" type="line" smooth="no"/>
    </contour>
  </outline>
</glyph>
<glyph name="fraction" format="1">
  <advance width="812"/>
  <unicode hex="2044"/>
  <outline>
    <contour>
      <point x="302" y="0" type="line" smooth="no"/>
      <point x="19" y="0" type="line" smooth="no"/>
      <point x="509" y="1767" type="line" smooth="no"/>
      <point x="793" y="1767" type="line" smooth="no"/>
    </contour>
  </outline>
</glyph>
<glyph name="uni2074" format="1">
  <advance width="630"/>
  <unicode hex="2074"/>
  <outline>
    <contour>
      <point x="576" y="973" type="line" smooth="no"/>
      <point x="576" y="802" type="line" smooth="no"/>
      <point x="537" y="802" type="line" smooth="no"/>
      <point x="537" y="650" type="line" smooth="no"/>
      <point x="330" y="650" type="line" smooth="no"/>
      <point x="330" y="802" type="line" smooth="no"/>
      <point x="27" y="802" type="line" smooth="no"/>
      <point x="27" y="951" type="line" smooth="no"/>
      <point x="214" y="1592" type="line" smooth="no"/>
      <point x="537" y="1592" type="line" smooth="no"/>
      <point x="537" y="973" type="line" smooth="no"/>
    </contour>
    <contour>
      <point x="220" y="973" type="line" smooth="no"/>
      <point x="330" y="973" type="line" smooth="no"/>
      <point x="330" y="1378" type="line" smooth="no"/>
    </contour>
  </outline>
</glyph>
<glyph name="Euro" format="1">
  <advance width="1075"/>
  <unicode hex="20ac"/>
  <outline>
    <contour>
      <point x="0" y="942" type="line" smooth="no"/>
      <point x="0" y="1166" type="line" smooth="no"/>
      <point x="100" y="1166" type="line" smooth="no"/>
      <point x="100" y="1231" type="line" smooth="yes"/>
      <point x="100" y="1480"/>
      <point x="338" y="1729"/>
      <point x="566" y="1729" type="qcurve" smooth="yes"/>
      <point x="777" y="1729"/>
      <point x="998" y="1487"/>
      <point x="1002" y="1245" type="qcurve" smooth="no"/>
      <point x="653" y="1246" type="line" smooth="no"/>
      <point x="653" y="1273" type="line" smooth="yes"/>
      <point x="653" y="1299"/>
      <point x="652" y="1330"/>
      <point x="642" y="1377"/>
      <point x="625" y="1404"/>
      <point x="591" y="1424"/>
      <point x="541" y="1424"/>
      <point x="507" y="1404"/>
      <point x="490" y="1377"/>
      <point x="480" y="1330"/>
      <point x="479" y="1299"/>
      <point x="479" y="1273" type="qcurve" smooth="yes"/>
      <point x="479" y="1166" type="line" smooth="no"/>
      <point x="794" y="1166" type="line" smooth="no"/>
      <point x="794" y="942" type="line" smooth="no"/>
      <point x="479" y="942" type="line" smooth="no"/>
      <point x="479" y="791" type="line" smooth="no"/>
      <point x="794" y="791" type="line" smooth="no"/>
      <point x="794" y="559" type="line" smooth="no"/>
      <point x="479" y="559" type="line" smooth="no"/>
      <point x="479" y="447" type="line" smooth="yes"/>
      <point x="479" y="391"/>
      <point x="534" y="330"/>
      <point x="598" y="330"/>
      <point x="653" y="391"/>
      <point x="653" y="447" type="qcurve" smooth="yes"/>
      <point x="653" y="469" type="line" smooth="no"/>
      <point x="1002" y="475" type="line" smooth="no"/>
      <point x="1001" y="347"/>
      <point x="925" y="151"/>
      <point x="799" y="38"/>
      <point x="649" y="-18"/>
      <point x="566" y="-18" type="qcurve" smooth="yes"/>
      <point x="495" y="-18"/>
      <point x="364" y="16"/>
      <point x="243" y="93"/>
      <point x="153" y="206"/>
      <point x="100" y="377"/>
      <point x="100" y="482" type="qcurve" smooth="yes"/>
      <point x="100" y="559" type="line" smooth="no"/>
      <point x="0" y="559" type="line" smooth="no"/>
      <point x="0" y="791" type="line" smooth="no"/>
      <point x="100" y="791" type="line" smooth="no"/>
      <point x="100" y="942" type="line" smooth="no"/>
    </contour>
  </outline>
</glyph>
<glyph name="product" format="1">
  <advance width="1020"/>
  <unicode hex="220f"/>
  <outline>
    <contour>
      <point x="940" y="1593" type="line" smooth="no"/>
      <point x="940" y="0" type="line" smooth="no"/>
      <point x="590" y="0" type="line" smooth="no"/>
      <point x="590" y="1292" type="line" smooth="no"/>
      <point x="424" y="1292" type="line" smooth="no"/>
      <point x="424" y="0" type="line" smooth="no"/>
      <point x="74" y="0" type="line" smooth="no"/>
      <point x="74" y="1593" type="line" smooth="no"/>
    </contour>
  </outline>
</glyph>
<glyph name="summation" format="1">
  <advance width="954"/>
  <unicode hex="2211"/>
  <outline>
    <contour>
      <point x="282" y="751" type="line" smooth="no"/>
      <point x="72" y="1229" type="line" smooth="no"/>
      <point x="72" y="1501" type="line" smooth="no"/>
      <point x="836" y="1501" type="line" smooth="no"/>
      <point x="836" y="1200" type="line" smooth="no"/>
      <point x="444" y="1200" type="line" smooth="no"/>
      <point x="657" y="751" type="line" smooth="no"/>
      <point x="444" y="301" type="line" smooth="no"/>
      <point x="836" y="301" type="line" smooth="no"/>
      <point x="836" y="0" type="line" smooth="no"/>
      <point x="72" y="0" type="line" smooth="no"/>
      <point x="72" y="272" type="line" smooth="no"/>
    </contour>
  </outline>
</glyph>
<glyph name="radical" format="1">
  <advance width="1010"/>
  <unicode hex="221a"/>
  <outline>
    <contour>
      <point x="596" y="1501" type="line" smooth="no"/>
      <point x="1427" y="1501" type="line" smooth="no"/>
      <point x="1427" y="1269" type="line" smooth="no"/>
      <point x="903" y="1269" type="line" smooth="no"/>
      <point x="697" y="0" type="line" smooth="no"/>
      <point x="293" y="0" type="line" smooth="no"/>
      <point x="74" y="741" type="line" smooth="no"/>
      <point x="343" y="741" type="line" smooth="no"/>
      <point x="457" y="338" type="line" smooth="no"/>
      <point x="594" y="1500" type="line" smooth="no"/>
    </contour>
  </outline>
</glyph>
<glyph name="integral" format="1">
  <advance width="627"/>
  <unicode hex="222b"/>
  <outline>
    <contour>
      <point x="486" y="195" type="line" smooth="yes"/>
      <point x="486" y="145"/>
      <point x="468" y="68"/>
      <point x="421" y="-6"/>
      <point x="323" y="-47"/>
      <point x="251" y="-47" type="qcurve" smooth="yes"/>
      <point x="124" y="-47"/>
      <point x="47" y="-18" type="qcurve" smooth="no"/>
      <point x="47" y="203" type="line" smooth="no"/>
      <point x="75" y="198"/>
      <point x="90" y="198" type="qcurve" smooth="yes"/>
      <point x="108" y="198"/>
      <point x="128" y="208"/>
      <point x="137" y="235"/>
      <point x="138" y="255"/>
      <point x="138" y="279" type="qcurve" smooth="yes"/>
      <point x="138" y="1365" type="line" smooth="yes"/>
      <point x="138" y="1418"/>
      <point x="159" y="1497"/>
      <point x="208" y="1569"/>
      <point x="308" y="1607"/>
      <point x="380" y="1607" type="qcurve" smooth="yes"/>
      <point x="507" y="1607"/>
      <point x="584" y="1578" type="qcurve" smooth="no"/>
      <point x="584" y="1357" type="line" smooth="no"/>
      <point x="556" y="1362"/>
      <point x="541" y="1362" type="qcurve" smooth="yes"/>
      <point x="507" y="1362"/>
      <point x="486" y="1323"/>
      <point x="486" y="1281" type="qcurve" smooth="yes"/>
    </contour>
  </outline>
</glyph>
<glyph name="lessequal" format="1">
  <advance width="487"/>
  <unicode hex="2264"/>
  <outline>
    <contour>
      <point x="-41" y="637" type="line" smooth="no"/>
      <point x="-41" y="1051" type="line" smooth="no"/>
      <point x="529" y="1392" type="line" smooth="no"/>
      <point x="529" y="1033" type="line" smooth="no"/>
      <point x="187" y="841" type="line" smooth="no"/>
      <point x="529" y="650" type="line" smooth="no"/>
      <point x="529" y="292" type="line" smooth="no"/>
    </contour>
    <contour>
      <point x="-14" y="0" type="line" smooth="no"/>
      <point x="-14" y="232" type="line" smooth="no"/>
      <point x="502" y="232" type="line" smooth="no"/>
      <point x="502" y="0" type="line" smooth="no"/>
    </contour>
  </outline>
</glyph>
<glyph name="uniFB02" format="1">
  <advance width="1145"/>
  <unicode hex="fb02"/>
  <outline>
    <contour>
      <point x="137" y="0" type="line" smooth="no"/>
      <point x="137" y="1161" type="line" smooth="no"/>
      <point x="72" y="1161" type="line" smooth="no"/>
      <point x="72" y="1208"/>
      <point x="76" y="1434" type="qcurve" smooth="no"/>
      <point x="137" y="1434" type="line" smooth="no"/>
      <point x="137" y="1536" type="line" smooth="yes"/>
      <point x="137" y="1778"/>
      <point x="379" y="1778" type="qcurve" smooth="yes"/>
      <point x="494" y="1778"/>
      <point x="563" y="1749" type="qcurve" smooth="no"/>
      <point x="563" y="1528" type="line" smooth="no"/>
      <point x="541" y="1533"/>
      <point x="530" y="1533" type="qcurve" smooth="yes"/>
      <point x="502" y="1533"/>
      <point x="485" y="1495"/>
      <point x="485" y="1453" type="qcurve" smooth="yes"/>
      <point x="485" y="1434" type="line" smooth="no"/>
      <point x="563" y="1434" type="line" smooth="no"/>
      <point x="563" y="1157" type="line" smooth="no"/>
      <point x="492" y="1157" type="line" smooth="no"/>
      <point x="492" y="0" type="line" smooth="no"/>
    </contour>
    <contour>
      <point x="1071" y="0" type="line" smooth="no"/>
      <point x="707" y="0" type="line" smooth="no"/>
      <point x="707" y="1767" type="line" smooth="no"/>
      <point x="1071" y="1767" type="line" smooth="no"/>
    </contour>
  </outline>
</glyph>
